G75*
G70*
%OFA0B0*%
%FSLAX25Y25*%
%IPPOS*%
%LPD*%
%AMOC8*
5,1,8,0,0,1.08239X$1,22.5*
%
%ADD10C,0.07400*%
%ADD11C,0.06400*%
%ADD12C,0.04362*%
%ADD13C,0.01600*%
%ADD14C,0.00800*%
%ADD15C,0.02500*%
D10*
X0046814Y0015039D03*
X0056814Y0015039D03*
X0066814Y0015039D03*
X0076814Y0015039D03*
X0086814Y0015039D03*
X0096814Y0015039D03*
X0106814Y0015039D03*
X0116814Y0015039D03*
X0131814Y0015039D03*
X0141814Y0015039D03*
X0151814Y0015039D03*
X0161814Y0015039D03*
X0171814Y0015039D03*
X0181814Y0015039D03*
X0191814Y0015039D03*
X0201814Y0015039D03*
X0229914Y0179239D03*
X0247714Y0179239D03*
X0247714Y0204839D03*
X0229914Y0204839D03*
X0166814Y0205039D03*
X0156814Y0205039D03*
X0146814Y0205039D03*
X0136814Y0205039D03*
X0126814Y0205039D03*
X0116814Y0205039D03*
X0096814Y0205039D03*
X0086814Y0205039D03*
X0076814Y0205039D03*
X0066814Y0205039D03*
X0056814Y0205039D03*
X0046814Y0205039D03*
D11*
X0099614Y0157039D02*
X0106014Y0157039D01*
X0106014Y0147039D02*
X0099614Y0147039D01*
X0099614Y0137039D02*
X0106014Y0137039D01*
X0106014Y0127039D02*
X0099614Y0127039D01*
X0099614Y0117039D02*
X0106014Y0117039D01*
X0106014Y0107039D02*
X0099614Y0107039D01*
X0099614Y0097039D02*
X0106014Y0097039D01*
X0106014Y0087039D02*
X0099614Y0087039D01*
X0124614Y0108039D02*
X0131014Y0108039D01*
X0131014Y0118039D02*
X0124614Y0118039D01*
X0124614Y0128039D02*
X0131014Y0128039D01*
X0132814Y0162839D02*
X0132814Y0169239D01*
X0142814Y0169239D02*
X0142814Y0162839D01*
X0152814Y0162839D02*
X0152814Y0169239D01*
X0162814Y0169239D02*
X0162814Y0162839D01*
X0172814Y0162839D02*
X0172814Y0169239D01*
X0182814Y0169239D02*
X0182814Y0162839D01*
D12*
X0176814Y0131039D03*
X0171814Y0110039D03*
X0222814Y0126039D03*
X0174814Y0072039D03*
X0213314Y0070789D03*
X0095814Y0182039D03*
D13*
X0004614Y0212239D02*
X0004614Y0007839D01*
X0229878Y0007839D01*
X0228184Y0009696D01*
X0228184Y0009696D01*
X0226837Y0013174D01*
X0226837Y0013174D01*
X0226837Y0016904D01*
X0226837Y0016904D01*
X0228184Y0020382D01*
X0228184Y0020382D01*
X0230697Y0023139D01*
X0230698Y0023139D01*
X0234036Y0024802D01*
X0234037Y0024802D01*
X0237750Y0025146D01*
X0237751Y0025146D01*
X0241338Y0024125D01*
X0241338Y0024125D01*
X0244315Y0021877D01*
X0244315Y0021877D01*
X0244315Y0021877D01*
X0246278Y0018706D01*
X0246278Y0018706D01*
X0246964Y0015039D01*
X0246278Y0011373D01*
X0246278Y0011372D01*
X0244315Y0008202D01*
X0244315Y0008201D01*
X0243835Y0007839D01*
X0259014Y0007839D01*
X0259014Y0212239D01*
X0004614Y0212239D01*
X0004614Y0211236D02*
X0259014Y0211236D01*
X0259014Y0209638D02*
X0250411Y0209638D01*
X0250596Y0209543D02*
X0249825Y0209936D01*
X0249002Y0210204D01*
X0248147Y0210339D01*
X0247914Y0210339D01*
X0247914Y0205042D01*
X0247513Y0205042D01*
X0247513Y0210339D01*
X0247281Y0210339D01*
X0246426Y0210204D01*
X0245603Y0209936D01*
X0244831Y0209543D01*
X0244131Y0209034D01*
X0243519Y0208422D01*
X0243010Y0207722D01*
X0242617Y0206950D01*
X0242350Y0206127D01*
X0242214Y0205272D01*
X0242214Y0205039D01*
X0247511Y0205039D01*
X0247511Y0204639D01*
X0242214Y0204639D01*
X0242214Y0204406D01*
X0242350Y0203551D01*
X0242617Y0202728D01*
X0243010Y0201957D01*
X0243519Y0201256D01*
X0244131Y0200644D01*
X0244831Y0200135D01*
X0245603Y0199742D01*
X0246426Y0199475D01*
X0247281Y0199339D01*
X0247513Y0199339D01*
X0247513Y0204637D01*
X0247914Y0204637D01*
X0247914Y0199339D01*
X0248147Y0199339D01*
X0249002Y0199475D01*
X0249825Y0199742D01*
X0250596Y0200135D01*
X0251297Y0200644D01*
X0251909Y0201256D01*
X0252418Y0201957D01*
X0252811Y0202728D01*
X0253078Y0203551D01*
X0253214Y0204406D01*
X0253214Y0204639D01*
X0247917Y0204639D01*
X0247917Y0205039D01*
X0253214Y0205039D01*
X0253214Y0205272D01*
X0253078Y0206127D01*
X0252811Y0206950D01*
X0252418Y0207722D01*
X0251909Y0208422D01*
X0251297Y0209034D01*
X0250596Y0209543D01*
X0252187Y0208039D02*
X0259014Y0208039D01*
X0259014Y0206441D02*
X0252977Y0206441D01*
X0247914Y0206441D02*
X0247513Y0206441D01*
X0247513Y0208039D02*
X0247914Y0208039D01*
X0247914Y0209638D02*
X0247513Y0209638D01*
X0245018Y0209638D02*
X0233742Y0209638D01*
X0233369Y0210010D02*
X0231128Y0210939D01*
X0228700Y0210939D01*
X0226459Y0210010D01*
X0224743Y0208294D01*
X0223814Y0206053D01*
X0223814Y0203626D01*
X0224743Y0201384D01*
X0226459Y0199668D01*
X0228700Y0198739D01*
X0231128Y0198739D01*
X0233369Y0199668D01*
X0235085Y0201384D01*
X0236014Y0203626D01*
X0236014Y0206053D01*
X0235085Y0208294D01*
X0233369Y0210010D01*
X0235191Y0208039D02*
X0243241Y0208039D01*
X0242452Y0206441D02*
X0235853Y0206441D01*
X0236014Y0204843D02*
X0247511Y0204843D01*
X0247917Y0204843D02*
X0259014Y0204843D01*
X0259014Y0203244D02*
X0252978Y0203244D01*
X0252192Y0201646D02*
X0259014Y0201646D01*
X0259014Y0200047D02*
X0250423Y0200047D01*
X0247914Y0200047D02*
X0247513Y0200047D01*
X0247513Y0201646D02*
X0247914Y0201646D01*
X0247914Y0203244D02*
X0247513Y0203244D01*
X0245004Y0200047D02*
X0233748Y0200047D01*
X0235193Y0201646D02*
X0243236Y0201646D01*
X0242449Y0203244D02*
X0235856Y0203244D01*
X0226080Y0200047D02*
X0170448Y0200047D01*
X0170269Y0199868D02*
X0171985Y0201584D01*
X0172914Y0203826D01*
X0172914Y0206253D01*
X0171985Y0208494D01*
X0170269Y0210210D01*
X0168028Y0211139D01*
X0165600Y0211139D01*
X0163359Y0210210D01*
X0161814Y0208665D01*
X0160269Y0210210D01*
X0158028Y0211139D01*
X0155600Y0211139D01*
X0153359Y0210210D01*
X0151814Y0208665D01*
X0150269Y0210210D01*
X0148028Y0211139D01*
X0145600Y0211139D01*
X0143359Y0210210D01*
X0141643Y0208494D01*
X0141446Y0208020D01*
X0141009Y0208622D01*
X0140397Y0209234D01*
X0139696Y0209743D01*
X0138925Y0210136D01*
X0138102Y0210404D01*
X0137247Y0210539D01*
X0137014Y0210539D01*
X0137014Y0205242D01*
X0136613Y0205242D01*
X0136613Y0210539D01*
X0136381Y0210539D01*
X0135526Y0210404D01*
X0134703Y0210136D01*
X0133931Y0209743D01*
X0133231Y0209234D01*
X0132619Y0208622D01*
X0132110Y0207922D01*
X0131814Y0207340D01*
X0131518Y0207922D01*
X0131009Y0208622D01*
X0130397Y0209234D01*
X0129696Y0209743D01*
X0128925Y0210136D01*
X0128102Y0210404D01*
X0127247Y0210539D01*
X0127014Y0210539D01*
X0127014Y0205242D01*
X0126613Y0205242D01*
X0126613Y0210539D01*
X0126381Y0210539D01*
X0125526Y0210404D01*
X0124703Y0210136D01*
X0123931Y0209743D01*
X0123231Y0209234D01*
X0122619Y0208622D01*
X0122181Y0208020D01*
X0121985Y0208494D01*
X0120269Y0210210D01*
X0118028Y0211139D01*
X0115600Y0211139D01*
X0113359Y0210210D01*
X0111643Y0208494D01*
X0110714Y0206253D01*
X0110714Y0203826D01*
X0111643Y0201584D01*
X0113359Y0199868D01*
X0115600Y0198939D01*
X0118028Y0198939D01*
X0120269Y0199868D01*
X0121985Y0201584D01*
X0122181Y0202059D01*
X0122619Y0201456D01*
X0123231Y0200844D01*
X0123931Y0200335D01*
X0124703Y0199942D01*
X0125526Y0199675D01*
X0126381Y0199539D01*
X0126613Y0199539D01*
X0126613Y0204837D01*
X0127014Y0204837D01*
X0127014Y0199539D01*
X0127247Y0199539D01*
X0128102Y0199675D01*
X0128925Y0199942D01*
X0129696Y0200335D01*
X0130397Y0200844D01*
X0131009Y0201456D01*
X0131518Y0202157D01*
X0131814Y0202738D01*
X0132110Y0202157D01*
X0132619Y0201456D01*
X0133231Y0200844D01*
X0133931Y0200335D01*
X0134703Y0199942D01*
X0135526Y0199675D01*
X0136381Y0199539D01*
X0136613Y0199539D01*
X0136613Y0204837D01*
X0137014Y0204837D01*
X0137014Y0199539D01*
X0137247Y0199539D01*
X0138102Y0199675D01*
X0138925Y0199942D01*
X0139696Y0200335D01*
X0140397Y0200844D01*
X0141009Y0201456D01*
X0141446Y0202059D01*
X0141643Y0201584D01*
X0143164Y0200063D01*
X0143164Y0182551D01*
X0140746Y0180133D01*
X0139720Y0179107D01*
X0139164Y0177765D01*
X0139164Y0173509D01*
X0138067Y0172411D01*
X0137814Y0171801D01*
X0137561Y0172411D01*
X0135986Y0173987D01*
X0133928Y0174839D01*
X0131700Y0174839D01*
X0129642Y0173987D01*
X0128067Y0172411D01*
X0127214Y0170353D01*
X0127214Y0161725D01*
X0128067Y0159667D01*
X0129642Y0158092D01*
X0130014Y0157938D01*
X0130014Y0155596D01*
X0130014Y0154482D01*
X0130441Y0153453D01*
X0135441Y0148453D01*
X0136228Y0147666D01*
X0137257Y0147239D01*
X0170654Y0147239D01*
X0174014Y0143880D01*
X0174014Y0134718D01*
X0172930Y0133634D01*
X0172233Y0131950D01*
X0172233Y0130128D01*
X0172930Y0128444D01*
X0174219Y0127156D01*
X0175903Y0126458D01*
X0177725Y0126458D01*
X0179409Y0127156D01*
X0180493Y0128239D01*
X0214371Y0128239D01*
X0215400Y0128666D01*
X0216187Y0129453D01*
X0228187Y0141453D01*
X0228614Y0142482D01*
X0228614Y0143596D01*
X0228614Y0165880D01*
X0232287Y0169553D01*
X0232714Y0170582D01*
X0232714Y0171696D01*
X0232714Y0173796D01*
X0233369Y0174068D01*
X0235085Y0175784D01*
X0236014Y0178026D01*
X0236014Y0180453D01*
X0235085Y0182694D01*
X0233369Y0184410D01*
X0231128Y0185339D01*
X0228700Y0185339D01*
X0226459Y0184410D01*
X0224743Y0182694D01*
X0223814Y0180453D01*
X0223814Y0178026D01*
X0224743Y0175784D01*
X0226459Y0174068D01*
X0227114Y0173796D01*
X0227114Y0172299D01*
X0224228Y0169413D01*
X0223441Y0168625D01*
X0223014Y0167596D01*
X0223014Y0144199D01*
X0212654Y0133839D01*
X0180493Y0133839D01*
X0179614Y0134718D01*
X0179614Y0145596D01*
X0179187Y0146625D01*
X0178400Y0147413D01*
X0173400Y0152413D01*
X0172371Y0152839D01*
X0171257Y0152839D01*
X0138974Y0152839D01*
X0135614Y0156199D01*
X0135614Y0157938D01*
X0135986Y0158092D01*
X0137561Y0159667D01*
X0137814Y0160278D01*
X0138067Y0159667D01*
X0139642Y0158092D01*
X0141700Y0157239D01*
X0143928Y0157239D01*
X0145986Y0158092D01*
X0147561Y0159667D01*
X0148136Y0161056D01*
X0148180Y0160920D01*
X0148538Y0160219D01*
X0149000Y0159582D01*
X0149557Y0159026D01*
X0150193Y0158563D01*
X0150894Y0158206D01*
X0151643Y0157963D01*
X0152420Y0157839D01*
X0152613Y0157839D01*
X0152613Y0165837D01*
X0153014Y0165837D01*
X0153014Y0157839D01*
X0153207Y0157839D01*
X0153985Y0157963D01*
X0154733Y0158206D01*
X0155435Y0158563D01*
X0156071Y0159026D01*
X0156628Y0159582D01*
X0157090Y0160219D01*
X0157448Y0160920D01*
X0157492Y0161056D01*
X0158067Y0159667D01*
X0159642Y0158092D01*
X0161700Y0157239D01*
X0163928Y0157239D01*
X0165986Y0158092D01*
X0167561Y0159667D01*
X0167814Y0160277D01*
X0168067Y0159667D01*
X0169642Y0158092D01*
X0171700Y0157239D01*
X0173928Y0157239D01*
X0175986Y0158092D01*
X0177561Y0159667D01*
X0177814Y0160277D01*
X0178067Y0159667D01*
X0179642Y0158092D01*
X0181700Y0157239D01*
X0183928Y0157239D01*
X0185986Y0158092D01*
X0187561Y0159667D01*
X0188414Y0161725D01*
X0188414Y0170353D01*
X0187561Y0172411D01*
X0185986Y0173987D01*
X0183928Y0174839D01*
X0181700Y0174839D01*
X0179642Y0173987D01*
X0178067Y0172411D01*
X0177814Y0171801D01*
X0177561Y0172411D01*
X0175986Y0173987D01*
X0173928Y0174839D01*
X0171700Y0174839D01*
X0169642Y0173987D01*
X0168067Y0172411D01*
X0167814Y0171801D01*
X0167561Y0172411D01*
X0165986Y0173987D01*
X0163928Y0174839D01*
X0161700Y0174839D01*
X0159642Y0173987D01*
X0158067Y0172411D01*
X0157492Y0171022D01*
X0157448Y0171159D01*
X0157090Y0171860D01*
X0156628Y0172496D01*
X0156071Y0173053D01*
X0155435Y0173515D01*
X0154733Y0173873D01*
X0153985Y0174116D01*
X0153207Y0174239D01*
X0153014Y0174239D01*
X0153014Y0166242D01*
X0152613Y0166242D01*
X0152613Y0174239D01*
X0152420Y0174239D01*
X0151643Y0174116D01*
X0150894Y0173873D01*
X0150193Y0173515D01*
X0149557Y0173053D01*
X0149000Y0172496D01*
X0148538Y0171860D01*
X0148180Y0171159D01*
X0148136Y0171022D01*
X0147561Y0172411D01*
X0146464Y0173509D01*
X0146464Y0175527D01*
X0149908Y0178972D01*
X0150464Y0180313D01*
X0150464Y0181765D01*
X0150464Y0200063D01*
X0151814Y0201413D01*
X0153359Y0199868D01*
X0155600Y0198939D01*
X0158028Y0198939D01*
X0160269Y0199868D01*
X0161814Y0201413D01*
X0163359Y0199868D01*
X0165600Y0198939D01*
X0168028Y0198939D01*
X0170269Y0199868D01*
X0172011Y0201646D02*
X0224634Y0201646D01*
X0223972Y0203244D02*
X0172673Y0203244D01*
X0172914Y0204843D02*
X0223814Y0204843D01*
X0223975Y0206441D02*
X0172836Y0206441D01*
X0172174Y0208039D02*
X0224637Y0208039D01*
X0226086Y0209638D02*
X0170842Y0209638D01*
X0162787Y0209638D02*
X0160842Y0209638D01*
X0152787Y0209638D02*
X0150842Y0209638D01*
X0142786Y0209638D02*
X0139841Y0209638D01*
X0141432Y0208039D02*
X0141455Y0208039D01*
X0137014Y0208039D02*
X0136613Y0208039D01*
X0136613Y0206441D02*
X0137014Y0206441D01*
X0136611Y0205239D02*
X0136611Y0204839D01*
X0132314Y0204839D01*
X0127017Y0204839D01*
X0127017Y0205239D01*
X0132314Y0205239D01*
X0136611Y0205239D01*
X0136611Y0204843D02*
X0127017Y0204843D01*
X0127014Y0206441D02*
X0126613Y0206441D01*
X0126613Y0208039D02*
X0127014Y0208039D01*
X0127014Y0209638D02*
X0126613Y0209638D01*
X0123787Y0209638D02*
X0120842Y0209638D01*
X0122174Y0208039D02*
X0122196Y0208039D01*
X0126613Y0203244D02*
X0127014Y0203244D01*
X0127014Y0201646D02*
X0126613Y0201646D01*
X0126613Y0200047D02*
X0127014Y0200047D01*
X0129131Y0200047D02*
X0134496Y0200047D01*
X0136613Y0200047D02*
X0137014Y0200047D01*
X0137014Y0201646D02*
X0136613Y0201646D01*
X0136613Y0203244D02*
X0137014Y0203244D01*
X0139131Y0200047D02*
X0143164Y0200047D01*
X0143164Y0198449D02*
X0049614Y0198449D01*
X0049614Y0198199D02*
X0049614Y0199596D01*
X0050269Y0199868D01*
X0051814Y0201413D01*
X0053359Y0199868D01*
X0055600Y0198939D01*
X0058028Y0198939D01*
X0060269Y0199868D01*
X0061814Y0201413D01*
X0063359Y0199868D01*
X0065600Y0198939D01*
X0068028Y0198939D01*
X0070269Y0199868D01*
X0071814Y0201413D01*
X0073359Y0199868D01*
X0075600Y0198939D01*
X0078028Y0198939D01*
X0080269Y0199868D01*
X0081814Y0201413D01*
X0083359Y0199868D01*
X0085600Y0198939D01*
X0088028Y0198939D01*
X0090269Y0199868D01*
X0091814Y0201413D01*
X0093359Y0199868D01*
X0095600Y0198939D01*
X0098028Y0198939D01*
X0100269Y0199868D01*
X0101985Y0201584D01*
X0102914Y0203826D01*
X0102914Y0206253D01*
X0101985Y0208494D01*
X0100269Y0210210D01*
X0098028Y0211139D01*
X0095600Y0211139D01*
X0093359Y0210210D01*
X0091814Y0208665D01*
X0090269Y0210210D01*
X0088028Y0211139D01*
X0085600Y0211139D01*
X0083359Y0210210D01*
X0081814Y0208665D01*
X0080269Y0210210D01*
X0078028Y0211139D01*
X0075600Y0211139D01*
X0073359Y0210210D01*
X0071814Y0208665D01*
X0070269Y0210210D01*
X0068028Y0211139D01*
X0065600Y0211139D01*
X0063359Y0210210D01*
X0061814Y0208665D01*
X0060269Y0210210D01*
X0058028Y0211139D01*
X0055600Y0211139D01*
X0053359Y0210210D01*
X0051814Y0208665D01*
X0050269Y0210210D01*
X0048028Y0211139D01*
X0045600Y0211139D01*
X0043359Y0210210D01*
X0041643Y0208494D01*
X0040714Y0206253D01*
X0040714Y0203826D01*
X0041643Y0201584D01*
X0043359Y0199868D01*
X0044014Y0199596D01*
X0044014Y0196482D01*
X0044441Y0195453D01*
X0045228Y0194666D01*
X0050441Y0189453D01*
X0051228Y0188666D01*
X0052257Y0188239D01*
X0085654Y0188239D01*
X0091233Y0182661D01*
X0091233Y0181128D01*
X0091930Y0179444D01*
X0093219Y0178156D01*
X0094903Y0177458D01*
X0096725Y0177458D01*
X0098409Y0178156D01*
X0099698Y0179444D01*
X0100395Y0181128D01*
X0100395Y0182950D01*
X0099698Y0184634D01*
X0098409Y0185923D01*
X0096725Y0186620D01*
X0095193Y0186620D01*
X0089187Y0192625D01*
X0088400Y0193413D01*
X0087371Y0193839D01*
X0053974Y0193839D01*
X0049614Y0198199D01*
X0050962Y0196850D02*
X0143164Y0196850D01*
X0143164Y0195252D02*
X0052561Y0195252D01*
X0047839Y0192055D02*
X0044079Y0192055D01*
X0044315Y0191877D02*
X0041338Y0194125D01*
X0037751Y0195146D01*
X0037750Y0195146D01*
X0034037Y0194802D01*
X0034036Y0194802D01*
X0030697Y0193139D01*
X0028184Y0190382D01*
X0026837Y0186904D01*
X0026837Y0183174D01*
X0028184Y0179696D01*
X0030697Y0176939D01*
X0030698Y0176939D01*
X0034036Y0175277D01*
X0034037Y0175277D01*
X0037750Y0174933D01*
X0037751Y0174933D01*
X0041338Y0175954D01*
X0044315Y0178201D01*
X0044315Y0178202D01*
X0046278Y0181372D01*
X0046278Y0181373D01*
X0046964Y0185039D01*
X0046278Y0188706D01*
X0044315Y0191877D01*
X0044315Y0191877D01*
X0044315Y0191877D01*
X0045194Y0190457D02*
X0049437Y0190457D01*
X0051035Y0188858D02*
X0046184Y0188858D01*
X0046278Y0188706D02*
X0046278Y0188706D01*
X0046549Y0187260D02*
X0086634Y0187260D01*
X0088232Y0185661D02*
X0046848Y0185661D01*
X0046781Y0184063D02*
X0089831Y0184063D01*
X0091233Y0182465D02*
X0046482Y0182465D01*
X0045965Y0180866D02*
X0091341Y0180866D01*
X0092107Y0179268D02*
X0044975Y0179268D01*
X0044315Y0178201D02*
X0044315Y0178201D01*
X0043610Y0177669D02*
X0094393Y0177669D01*
X0097235Y0177669D02*
X0139164Y0177669D01*
X0139164Y0176071D02*
X0041493Y0176071D01*
X0041338Y0175954D02*
X0041338Y0175954D01*
X0032441Y0176071D02*
X0004614Y0176071D01*
X0004614Y0177669D02*
X0030031Y0177669D01*
X0028574Y0179268D02*
X0004614Y0179268D01*
X0004614Y0180866D02*
X0027731Y0180866D01*
X0028184Y0179696D02*
X0028184Y0179696D01*
X0027112Y0182465D02*
X0004614Y0182465D01*
X0004614Y0184063D02*
X0026837Y0184063D01*
X0026837Y0183174D02*
X0026837Y0183174D01*
X0026837Y0185661D02*
X0004614Y0185661D01*
X0004614Y0187260D02*
X0026975Y0187260D01*
X0026837Y0186904D02*
X0026837Y0186904D01*
X0027594Y0188858D02*
X0004614Y0188858D01*
X0004614Y0190457D02*
X0028253Y0190457D01*
X0029710Y0192055D02*
X0004614Y0192055D01*
X0004614Y0193654D02*
X0031731Y0193654D01*
X0030697Y0193139D02*
X0030697Y0193139D01*
X0041338Y0194125D02*
X0041338Y0194125D01*
X0041963Y0193654D02*
X0046240Y0193654D01*
X0044642Y0195252D02*
X0004614Y0195252D01*
X0004614Y0196850D02*
X0044014Y0196850D01*
X0044014Y0198449D02*
X0004614Y0198449D01*
X0004614Y0200047D02*
X0043180Y0200047D01*
X0041617Y0201646D02*
X0004614Y0201646D01*
X0004614Y0203244D02*
X0040955Y0203244D01*
X0040714Y0204843D02*
X0004614Y0204843D01*
X0004614Y0206441D02*
X0040793Y0206441D01*
X0041455Y0208039D02*
X0004614Y0208039D01*
X0004614Y0209638D02*
X0042786Y0209638D01*
X0050842Y0209638D02*
X0052787Y0209638D01*
X0060842Y0209638D02*
X0062787Y0209638D01*
X0070842Y0209638D02*
X0072787Y0209638D01*
X0080842Y0209638D02*
X0082787Y0209638D01*
X0090842Y0209638D02*
X0092787Y0209638D01*
X0100842Y0209638D02*
X0112786Y0209638D01*
X0111455Y0208039D02*
X0102174Y0208039D01*
X0102836Y0206441D02*
X0110793Y0206441D01*
X0110714Y0204843D02*
X0102914Y0204843D01*
X0102673Y0203244D02*
X0110955Y0203244D01*
X0111617Y0201646D02*
X0102011Y0201646D01*
X0100448Y0200047D02*
X0113180Y0200047D01*
X0120448Y0200047D02*
X0124496Y0200047D01*
X0122481Y0201646D02*
X0122010Y0201646D01*
X0131146Y0201646D02*
X0132481Y0201646D01*
X0132196Y0208039D02*
X0131432Y0208039D01*
X0129841Y0209638D02*
X0133787Y0209638D01*
X0136613Y0209638D02*
X0137014Y0209638D01*
X0141146Y0201646D02*
X0141617Y0201646D01*
X0143164Y0193654D02*
X0087819Y0193654D01*
X0089757Y0192055D02*
X0143164Y0192055D01*
X0143164Y0190457D02*
X0091356Y0190457D01*
X0092954Y0188858D02*
X0143164Y0188858D01*
X0143164Y0187260D02*
X0094553Y0187260D01*
X0098670Y0185661D02*
X0143164Y0185661D01*
X0143164Y0184063D02*
X0099934Y0184063D01*
X0100395Y0182465D02*
X0143078Y0182465D01*
X0141479Y0180866D02*
X0100286Y0180866D01*
X0099521Y0179268D02*
X0139881Y0179268D01*
X0139164Y0174472D02*
X0134813Y0174472D01*
X0137099Y0172874D02*
X0138530Y0172874D01*
X0130815Y0174472D02*
X0004614Y0174472D01*
X0004614Y0172874D02*
X0128529Y0172874D01*
X0127596Y0171276D02*
X0004614Y0171276D01*
X0004614Y0169677D02*
X0127214Y0169677D01*
X0127214Y0168079D02*
X0004614Y0168079D01*
X0004614Y0166480D02*
X0127214Y0166480D01*
X0127214Y0164882D02*
X0004614Y0164882D01*
X0004614Y0163283D02*
X0127214Y0163283D01*
X0127231Y0161685D02*
X0109288Y0161685D01*
X0109186Y0161787D02*
X0107128Y0162639D01*
X0098500Y0162639D01*
X0096442Y0161787D01*
X0094867Y0160211D01*
X0094014Y0158153D01*
X0094014Y0155925D01*
X0094867Y0153867D01*
X0096442Y0152292D01*
X0097052Y0152039D01*
X0096442Y0151787D01*
X0094867Y0150211D01*
X0094014Y0148153D01*
X0094014Y0145925D01*
X0094867Y0143867D01*
X0096442Y0142292D01*
X0097052Y0142039D01*
X0096442Y0141787D01*
X0094867Y0140211D01*
X0094014Y0138153D01*
X0094014Y0135925D01*
X0094867Y0133867D01*
X0096442Y0132292D01*
X0097830Y0131717D01*
X0097694Y0131673D01*
X0096993Y0131315D01*
X0004614Y0131315D01*
X0004614Y0129717D02*
X0095379Y0129717D01*
X0095338Y0129660D02*
X0094980Y0128959D01*
X0094737Y0128210D01*
X0094614Y0127433D01*
X0094614Y0127239D01*
X0102611Y0127239D01*
X0102611Y0126839D01*
X0094614Y0126839D01*
X0094614Y0126646D01*
X0094737Y0125868D01*
X0094980Y0125120D01*
X0095338Y0124419D01*
X0095800Y0123782D01*
X0096357Y0123226D01*
X0096993Y0122763D01*
X0097694Y0122406D01*
X0097830Y0122361D01*
X0096442Y0121787D01*
X0094867Y0120211D01*
X0094014Y0118153D01*
X0094014Y0115925D01*
X0094867Y0113867D01*
X0096442Y0112292D01*
X0097052Y0112039D01*
X0096442Y0111787D01*
X0094867Y0110211D01*
X0094014Y0108153D01*
X0094014Y0105925D01*
X0094867Y0103867D01*
X0096442Y0102292D01*
X0097052Y0102039D01*
X0096442Y0101787D01*
X0094867Y0100211D01*
X0094014Y0098153D01*
X0094014Y0095925D01*
X0094867Y0093867D01*
X0096442Y0092292D01*
X0097830Y0091717D01*
X0097694Y0091673D01*
X0096993Y0091315D01*
X0096357Y0090853D01*
X0095800Y0090296D01*
X0095338Y0089660D01*
X0094980Y0088959D01*
X0094737Y0088210D01*
X0094614Y0087433D01*
X0094614Y0087239D01*
X0102611Y0087239D01*
X0102611Y0086839D01*
X0094614Y0086839D01*
X0094614Y0086646D01*
X0094737Y0085868D01*
X0094980Y0085120D01*
X0095338Y0084419D01*
X0095800Y0083782D01*
X0096357Y0083226D01*
X0096993Y0082763D01*
X0097694Y0082406D01*
X0098443Y0082163D01*
X0099220Y0082039D01*
X0102613Y0082039D01*
X0102613Y0086837D01*
X0103014Y0086837D01*
X0103014Y0082039D01*
X0106407Y0082039D01*
X0107185Y0082163D01*
X0107933Y0082406D01*
X0108635Y0082763D01*
X0109271Y0083226D01*
X0109828Y0083782D01*
X0110290Y0084419D01*
X0110648Y0085120D01*
X0110891Y0085868D01*
X0111014Y0086646D01*
X0111014Y0086839D01*
X0103017Y0086839D01*
X0103017Y0087239D01*
X0111014Y0087239D01*
X0111014Y0087433D01*
X0110891Y0088210D01*
X0110648Y0088959D01*
X0110290Y0089660D01*
X0109828Y0090296D01*
X0109271Y0090853D01*
X0108635Y0091315D01*
X0107933Y0091673D01*
X0107798Y0091717D01*
X0109186Y0092292D01*
X0110761Y0093867D01*
X0111614Y0095925D01*
X0111614Y0098153D01*
X0110761Y0100211D01*
X0109186Y0101787D01*
X0108576Y0102039D01*
X0109186Y0102292D01*
X0110761Y0103867D01*
X0111614Y0105925D01*
X0111614Y0108153D01*
X0110761Y0110211D01*
X0109186Y0111787D01*
X0108576Y0112039D01*
X0109186Y0112292D01*
X0110761Y0113867D01*
X0111614Y0115925D01*
X0111614Y0118153D01*
X0110761Y0120211D01*
X0109186Y0121787D01*
X0107798Y0122361D01*
X0107933Y0122406D01*
X0108635Y0122763D01*
X0109271Y0123226D01*
X0109828Y0123782D01*
X0110290Y0124419D01*
X0110648Y0125120D01*
X0110891Y0125868D01*
X0111014Y0126646D01*
X0111014Y0126839D01*
X0103017Y0126839D01*
X0103017Y0127239D01*
X0111014Y0127239D01*
X0111014Y0127433D01*
X0110891Y0128210D01*
X0110648Y0128959D01*
X0110290Y0129660D01*
X0109828Y0130296D01*
X0109271Y0130853D01*
X0108635Y0131315D01*
X0119970Y0131315D01*
X0119867Y0131211D02*
X0119014Y0129153D01*
X0119014Y0126925D01*
X0119867Y0124867D01*
X0121442Y0123292D01*
X0122052Y0123039D01*
X0121442Y0122787D01*
X0119867Y0121211D01*
X0119014Y0119153D01*
X0119014Y0116925D01*
X0119867Y0114867D01*
X0121442Y0113292D01*
X0122052Y0113039D01*
X0121442Y0112787D01*
X0119867Y0111211D01*
X0119014Y0109153D01*
X0119014Y0106925D01*
X0119867Y0104867D01*
X0121442Y0103292D01*
X0123500Y0102439D01*
X0124614Y0102439D01*
X0124614Y0091365D01*
X0098488Y0065239D01*
X0078451Y0065239D01*
X0077177Y0065239D01*
X0076001Y0064752D01*
X0066001Y0054752D01*
X0065101Y0053852D01*
X0064614Y0052676D01*
X0064614Y0020730D01*
X0063359Y0020210D01*
X0061814Y0018665D01*
X0060269Y0020210D01*
X0058028Y0021139D01*
X0055600Y0021139D01*
X0053359Y0020210D01*
X0051814Y0018665D01*
X0050269Y0020210D01*
X0048028Y0021139D01*
X0045600Y0021139D01*
X0043359Y0020210D01*
X0041643Y0018494D01*
X0040714Y0016253D01*
X0040714Y0013826D01*
X0041643Y0011584D01*
X0043359Y0009868D01*
X0045600Y0008939D01*
X0048028Y0008939D01*
X0050269Y0009868D01*
X0051814Y0011413D01*
X0053359Y0009868D01*
X0055600Y0008939D01*
X0058028Y0008939D01*
X0060269Y0009868D01*
X0061814Y0011413D01*
X0063359Y0009868D01*
X0065600Y0008939D01*
X0068028Y0008939D01*
X0070269Y0009868D01*
X0071814Y0011413D01*
X0073359Y0009868D01*
X0075600Y0008939D01*
X0078028Y0008939D01*
X0080269Y0009868D01*
X0081814Y0011413D01*
X0083359Y0009868D01*
X0085600Y0008939D01*
X0088028Y0008939D01*
X0090269Y0009868D01*
X0091814Y0011413D01*
X0093359Y0009868D01*
X0095600Y0008939D01*
X0098028Y0008939D01*
X0100269Y0009868D01*
X0101814Y0011413D01*
X0103359Y0009868D01*
X0105600Y0008939D01*
X0108028Y0008939D01*
X0110269Y0009868D01*
X0111814Y0011413D01*
X0113359Y0009868D01*
X0115600Y0008939D01*
X0118028Y0008939D01*
X0120269Y0009868D01*
X0121985Y0011584D01*
X0122914Y0013826D01*
X0122914Y0016253D01*
X0121985Y0018494D01*
X0120269Y0020210D01*
X0118028Y0021139D01*
X0115600Y0021139D01*
X0113359Y0020210D01*
X0111814Y0018665D01*
X0110269Y0020210D01*
X0108028Y0021139D01*
X0105600Y0021139D01*
X0103359Y0020210D01*
X0101814Y0018665D01*
X0100269Y0020210D01*
X0098028Y0021139D01*
X0095600Y0021139D01*
X0093359Y0020210D01*
X0091814Y0018665D01*
X0090269Y0020210D01*
X0088028Y0021139D01*
X0085600Y0021139D01*
X0083359Y0020210D01*
X0081814Y0018665D01*
X0080269Y0020210D01*
X0078028Y0021139D01*
X0075600Y0021139D01*
X0073359Y0020210D01*
X0071814Y0018665D01*
X0071014Y0019466D01*
X0071014Y0050713D01*
X0079140Y0058839D01*
X0100451Y0058839D01*
X0101627Y0059326D01*
X0102527Y0060226D01*
X0130527Y0088226D01*
X0131014Y0089402D01*
X0131014Y0090676D01*
X0131014Y0102439D01*
X0132128Y0102439D01*
X0134186Y0103292D01*
X0135761Y0104867D01*
X0136614Y0106925D01*
X0136614Y0109153D01*
X0135761Y0111211D01*
X0134186Y0112787D01*
X0133576Y0113039D01*
X0134186Y0113292D01*
X0135761Y0114867D01*
X0136614Y0116925D01*
X0136614Y0119153D01*
X0135761Y0121211D01*
X0134186Y0122787D01*
X0133576Y0123039D01*
X0134186Y0123292D01*
X0135761Y0124867D01*
X0135915Y0125239D01*
X0140654Y0125239D01*
X0158228Y0107666D01*
X0159257Y0107239D01*
X0160371Y0107239D01*
X0168135Y0107239D01*
X0169219Y0106156D01*
X0170903Y0105458D01*
X0172725Y0105458D01*
X0174409Y0106156D01*
X0175698Y0107444D01*
X0176395Y0109128D01*
X0176395Y0110950D01*
X0175698Y0112634D01*
X0174409Y0113923D01*
X0172725Y0114620D01*
X0170903Y0114620D01*
X0169219Y0113923D01*
X0168135Y0112839D01*
X0160974Y0112839D01*
X0143400Y0130413D01*
X0142371Y0130839D01*
X0141257Y0130839D01*
X0135915Y0130839D01*
X0135761Y0131211D01*
X0134186Y0132787D01*
X0132128Y0133639D01*
X0123500Y0133639D01*
X0121442Y0132787D01*
X0119867Y0131211D01*
X0119248Y0129717D02*
X0110249Y0129717D01*
X0110906Y0128118D02*
X0119014Y0128118D01*
X0119182Y0126520D02*
X0110994Y0126520D01*
X0110546Y0124921D02*
X0119844Y0124921D01*
X0121411Y0123323D02*
X0109369Y0123323D01*
X0109248Y0121724D02*
X0120380Y0121724D01*
X0119417Y0120126D02*
X0110797Y0120126D01*
X0111459Y0118528D02*
X0119014Y0118528D01*
X0119014Y0116929D02*
X0111614Y0116929D01*
X0111367Y0115331D02*
X0119674Y0115331D01*
X0121001Y0113732D02*
X0110627Y0113732D01*
X0108804Y0112134D02*
X0120789Y0112134D01*
X0119587Y0110535D02*
X0110437Y0110535D01*
X0111289Y0108937D02*
X0119014Y0108937D01*
X0119014Y0107339D02*
X0111614Y0107339D01*
X0111537Y0105740D02*
X0119505Y0105740D01*
X0120592Y0104142D02*
X0110875Y0104142D01*
X0109438Y0102543D02*
X0123249Y0102543D01*
X0124614Y0100945D02*
X0110028Y0100945D01*
X0111120Y0099346D02*
X0124614Y0099346D01*
X0124614Y0097748D02*
X0111614Y0097748D01*
X0111614Y0096150D02*
X0124614Y0096150D01*
X0124614Y0094551D02*
X0111044Y0094551D01*
X0109847Y0092953D02*
X0124614Y0092953D01*
X0124604Y0091354D02*
X0108558Y0091354D01*
X0110220Y0089756D02*
X0123005Y0089756D01*
X0121407Y0088157D02*
X0110899Y0088157D01*
X0111000Y0086559D02*
X0119808Y0086559D01*
X0118210Y0084961D02*
X0110567Y0084961D01*
X0109408Y0083362D02*
X0116611Y0083362D01*
X0115013Y0081764D02*
X0004614Y0081764D01*
X0004614Y0083362D02*
X0096220Y0083362D01*
X0095061Y0084961D02*
X0004614Y0084961D01*
X0004614Y0086559D02*
X0094628Y0086559D01*
X0094729Y0088157D02*
X0004614Y0088157D01*
X0004614Y0089756D02*
X0095408Y0089756D01*
X0097070Y0091354D02*
X0004614Y0091354D01*
X0004614Y0092953D02*
X0095781Y0092953D01*
X0094583Y0094551D02*
X0004614Y0094551D01*
X0004614Y0096150D02*
X0094014Y0096150D01*
X0094014Y0097748D02*
X0004614Y0097748D01*
X0004614Y0099346D02*
X0094509Y0099346D01*
X0095600Y0100945D02*
X0004614Y0100945D01*
X0004614Y0102543D02*
X0011723Y0102543D01*
X0011772Y0102494D02*
X0015044Y0101139D01*
X0018584Y0101139D01*
X0021856Y0102494D01*
X0024359Y0104998D01*
X0025714Y0108269D01*
X0025714Y0111809D01*
X0024359Y0115081D01*
X0021856Y0117584D01*
X0018584Y0118939D01*
X0015044Y0118939D01*
X0011772Y0117584D01*
X0009269Y0115081D01*
X0007914Y0111809D01*
X0007914Y0108269D01*
X0009269Y0104998D01*
X0011772Y0102494D01*
X0010125Y0104142D02*
X0004614Y0104142D01*
X0004614Y0105740D02*
X0008961Y0105740D01*
X0008299Y0107339D02*
X0004614Y0107339D01*
X0004614Y0108937D02*
X0007914Y0108937D01*
X0007914Y0110535D02*
X0004614Y0110535D01*
X0004614Y0112134D02*
X0008049Y0112134D01*
X0008711Y0113732D02*
X0004614Y0113732D01*
X0004614Y0115331D02*
X0009519Y0115331D01*
X0011117Y0116929D02*
X0004614Y0116929D01*
X0004614Y0118528D02*
X0014050Y0118528D01*
X0019578Y0118528D02*
X0094169Y0118528D01*
X0094014Y0116929D02*
X0022511Y0116929D01*
X0024109Y0115331D02*
X0094260Y0115331D01*
X0095001Y0113732D02*
X0024918Y0113732D01*
X0025580Y0112134D02*
X0096823Y0112134D01*
X0095191Y0110535D02*
X0025714Y0110535D01*
X0025714Y0108937D02*
X0094339Y0108937D01*
X0094014Y0107339D02*
X0025328Y0107339D01*
X0024667Y0105740D02*
X0094091Y0105740D01*
X0094752Y0104142D02*
X0023503Y0104142D01*
X0021905Y0102543D02*
X0096190Y0102543D01*
X0102613Y0086559D02*
X0103014Y0086559D01*
X0103014Y0084961D02*
X0102613Y0084961D01*
X0102613Y0083362D02*
X0103014Y0083362D01*
X0110218Y0076969D02*
X0004614Y0076969D01*
X0004614Y0078567D02*
X0111816Y0078567D01*
X0113415Y0080165D02*
X0004614Y0080165D01*
X0004614Y0075370D02*
X0108619Y0075370D01*
X0107021Y0073772D02*
X0004614Y0073772D01*
X0004614Y0072173D02*
X0105422Y0072173D01*
X0103824Y0070575D02*
X0004614Y0070575D01*
X0004614Y0068976D02*
X0102226Y0068976D01*
X0100627Y0067378D02*
X0004614Y0067378D01*
X0004614Y0065780D02*
X0099029Y0065780D01*
X0099814Y0062039D02*
X0077814Y0062039D01*
X0067814Y0052039D01*
X0067814Y0016039D01*
X0066814Y0015039D01*
X0071054Y0019425D02*
X0072574Y0019425D01*
X0071014Y0021024D02*
X0075322Y0021024D01*
X0078306Y0021024D02*
X0085322Y0021024D01*
X0088306Y0021024D02*
X0095322Y0021024D01*
X0098306Y0021024D02*
X0105322Y0021024D01*
X0108306Y0021024D02*
X0115322Y0021024D01*
X0118306Y0021024D02*
X0130322Y0021024D01*
X0130600Y0021139D02*
X0128359Y0020210D01*
X0126643Y0018494D01*
X0125714Y0016253D01*
X0125714Y0013826D01*
X0126643Y0011584D01*
X0128359Y0009868D01*
X0130600Y0008939D01*
X0133028Y0008939D01*
X0135269Y0009868D01*
X0136814Y0011413D01*
X0138359Y0009868D01*
X0140600Y0008939D01*
X0143028Y0008939D01*
X0145269Y0009868D01*
X0146814Y0011413D01*
X0148359Y0009868D01*
X0150600Y0008939D01*
X0153028Y0008939D01*
X0155269Y0009868D01*
X0156814Y0011413D01*
X0158359Y0009868D01*
X0160600Y0008939D01*
X0163028Y0008939D01*
X0165269Y0009868D01*
X0166814Y0011413D01*
X0168359Y0009868D01*
X0170600Y0008939D01*
X0173028Y0008939D01*
X0175269Y0009868D01*
X0176814Y0011413D01*
X0178359Y0009868D01*
X0180600Y0008939D01*
X0183028Y0008939D01*
X0185269Y0009868D01*
X0186985Y0011584D01*
X0187181Y0012059D01*
X0187619Y0011456D01*
X0188231Y0010844D01*
X0188931Y0010335D01*
X0189703Y0009942D01*
X0190526Y0009675D01*
X0191381Y0009539D01*
X0191613Y0009539D01*
X0191613Y0014837D01*
X0192014Y0014837D01*
X0192014Y0009539D01*
X0192247Y0009539D01*
X0193102Y0009675D01*
X0193925Y0009942D01*
X0194696Y0010335D01*
X0195397Y0010844D01*
X0196009Y0011456D01*
X0196446Y0012059D01*
X0196643Y0011584D01*
X0198359Y0009868D01*
X0200600Y0008939D01*
X0203028Y0008939D01*
X0205269Y0009868D01*
X0206985Y0011584D01*
X0207914Y0013826D01*
X0207914Y0016253D01*
X0206985Y0018494D01*
X0205269Y0020210D01*
X0203028Y0021139D01*
X0200600Y0021139D01*
X0198359Y0020210D01*
X0196643Y0018494D01*
X0196446Y0018019D01*
X0196009Y0018622D01*
X0195397Y0019234D01*
X0194696Y0019743D01*
X0193925Y0020136D01*
X0193102Y0020404D01*
X0192247Y0020539D01*
X0192014Y0020539D01*
X0192014Y0015242D01*
X0191613Y0015242D01*
X0191613Y0020539D01*
X0191381Y0020539D01*
X0190526Y0020404D01*
X0189703Y0020136D01*
X0188931Y0019743D01*
X0188231Y0019234D01*
X0187619Y0018622D01*
X0187181Y0018019D01*
X0186985Y0018494D01*
X0185269Y0020210D01*
X0183028Y0021139D01*
X0180600Y0021139D01*
X0178359Y0020210D01*
X0176814Y0018665D01*
X0175269Y0020210D01*
X0173028Y0021139D01*
X0170600Y0021139D01*
X0168359Y0020210D01*
X0166814Y0018665D01*
X0165269Y0020210D01*
X0163028Y0021139D01*
X0160600Y0021139D01*
X0158359Y0020210D01*
X0156814Y0018665D01*
X0155269Y0020210D01*
X0153028Y0021139D01*
X0150600Y0021139D01*
X0148359Y0020210D01*
X0146814Y0018665D01*
X0145269Y0020210D01*
X0143028Y0021139D01*
X0140600Y0021139D01*
X0138359Y0020210D01*
X0136814Y0018665D01*
X0135269Y0020210D01*
X0133028Y0021139D01*
X0130600Y0021139D01*
X0133306Y0021024D02*
X0140322Y0021024D01*
X0143306Y0021024D02*
X0150322Y0021024D01*
X0153306Y0021024D02*
X0160322Y0021024D01*
X0163306Y0021024D02*
X0170322Y0021024D01*
X0173306Y0021024D02*
X0180322Y0021024D01*
X0183306Y0021024D02*
X0200322Y0021024D01*
X0203306Y0021024D02*
X0228769Y0021024D01*
X0227814Y0019425D02*
X0206054Y0019425D01*
X0207262Y0017827D02*
X0227194Y0017827D01*
X0226837Y0016228D02*
X0207914Y0016228D01*
X0207914Y0014630D02*
X0226837Y0014630D01*
X0226892Y0013031D02*
X0207585Y0013031D01*
X0206834Y0011433D02*
X0227511Y0011433D01*
X0228131Y0009835D02*
X0205188Y0009835D01*
X0198439Y0009835D02*
X0193594Y0009835D01*
X0192014Y0009835D02*
X0191613Y0009835D01*
X0190033Y0009835D02*
X0185188Y0009835D01*
X0186834Y0011433D02*
X0187642Y0011433D01*
X0191613Y0011433D02*
X0192014Y0011433D01*
X0192014Y0013031D02*
X0191613Y0013031D01*
X0191613Y0014630D02*
X0192014Y0014630D01*
X0192014Y0016228D02*
X0191613Y0016228D01*
X0191613Y0017827D02*
X0192014Y0017827D01*
X0192014Y0019425D02*
X0191613Y0019425D01*
X0188494Y0019425D02*
X0186054Y0019425D01*
X0177574Y0019425D02*
X0176054Y0019425D01*
X0167574Y0019425D02*
X0166054Y0019425D01*
X0157574Y0019425D02*
X0156054Y0019425D01*
X0147574Y0019425D02*
X0146054Y0019425D01*
X0137574Y0019425D02*
X0136054Y0019425D01*
X0127574Y0019425D02*
X0121054Y0019425D01*
X0122262Y0017827D02*
X0126367Y0017827D01*
X0125714Y0016228D02*
X0122914Y0016228D01*
X0122914Y0014630D02*
X0125714Y0014630D01*
X0126043Y0013031D02*
X0122585Y0013031D01*
X0121834Y0011433D02*
X0126794Y0011433D01*
X0128439Y0009835D02*
X0120188Y0009835D01*
X0113439Y0009835D02*
X0110188Y0009835D01*
X0103439Y0009835D02*
X0100188Y0009835D01*
X0093439Y0009835D02*
X0090188Y0009835D01*
X0083439Y0009835D02*
X0080188Y0009835D01*
X0073439Y0009835D02*
X0070188Y0009835D01*
X0063439Y0009835D02*
X0060188Y0009835D01*
X0053439Y0009835D02*
X0050188Y0009835D01*
X0043439Y0009835D02*
X0004614Y0009835D01*
X0004614Y0011433D02*
X0041794Y0011433D01*
X0041043Y0013031D02*
X0004614Y0013031D01*
X0004614Y0014630D02*
X0040714Y0014630D01*
X0040714Y0016228D02*
X0004614Y0016228D01*
X0004614Y0017827D02*
X0041367Y0017827D01*
X0042574Y0019425D02*
X0004614Y0019425D01*
X0004614Y0021024D02*
X0045322Y0021024D01*
X0048306Y0021024D02*
X0055322Y0021024D01*
X0058306Y0021024D02*
X0064614Y0021024D01*
X0064614Y0022622D02*
X0004614Y0022622D01*
X0004614Y0024220D02*
X0064614Y0024220D01*
X0064614Y0025819D02*
X0004614Y0025819D01*
X0004614Y0027417D02*
X0064614Y0027417D01*
X0064614Y0029016D02*
X0004614Y0029016D01*
X0004614Y0030614D02*
X0064614Y0030614D01*
X0064614Y0032213D02*
X0004614Y0032213D01*
X0004614Y0033811D02*
X0064614Y0033811D01*
X0064614Y0035409D02*
X0004614Y0035409D01*
X0004614Y0037008D02*
X0064614Y0037008D01*
X0064614Y0038606D02*
X0004614Y0038606D01*
X0004614Y0040205D02*
X0064614Y0040205D01*
X0064614Y0041803D02*
X0004614Y0041803D01*
X0004614Y0043402D02*
X0064614Y0043402D01*
X0064614Y0045000D02*
X0004614Y0045000D01*
X0004614Y0046598D02*
X0064614Y0046598D01*
X0064614Y0048197D02*
X0004614Y0048197D01*
X0004614Y0049795D02*
X0064614Y0049795D01*
X0064614Y0051394D02*
X0004614Y0051394D01*
X0004614Y0052992D02*
X0064745Y0052992D01*
X0065840Y0054591D02*
X0004614Y0054591D01*
X0004614Y0056189D02*
X0067438Y0056189D01*
X0069037Y0057787D02*
X0004614Y0057787D01*
X0004614Y0059386D02*
X0070635Y0059386D01*
X0072233Y0060984D02*
X0004614Y0060984D01*
X0004614Y0062583D02*
X0073832Y0062583D01*
X0075430Y0064181D02*
X0004614Y0064181D01*
X0071014Y0049795D02*
X0259014Y0049795D01*
X0259014Y0048197D02*
X0071014Y0048197D01*
X0071014Y0046598D02*
X0259014Y0046598D01*
X0259014Y0045000D02*
X0071014Y0045000D01*
X0071014Y0043402D02*
X0259014Y0043402D01*
X0259014Y0041803D02*
X0071014Y0041803D01*
X0071014Y0040205D02*
X0259014Y0040205D01*
X0259014Y0038606D02*
X0071014Y0038606D01*
X0071014Y0037008D02*
X0259014Y0037008D01*
X0259014Y0035409D02*
X0071014Y0035409D01*
X0071014Y0033811D02*
X0259014Y0033811D01*
X0259014Y0032213D02*
X0071014Y0032213D01*
X0071014Y0030614D02*
X0259014Y0030614D01*
X0259014Y0029016D02*
X0071014Y0029016D01*
X0071014Y0027417D02*
X0259014Y0027417D01*
X0259014Y0025819D02*
X0071014Y0025819D01*
X0071014Y0024220D02*
X0232870Y0024220D01*
X0230226Y0022622D02*
X0071014Y0022622D01*
X0062574Y0019425D02*
X0061054Y0019425D01*
X0052574Y0019425D02*
X0051054Y0019425D01*
X0081054Y0019425D02*
X0082574Y0019425D01*
X0091054Y0019425D02*
X0092574Y0019425D01*
X0101054Y0019425D02*
X0102574Y0019425D01*
X0111054Y0019425D02*
X0112574Y0019425D01*
X0135188Y0009835D02*
X0138439Y0009835D01*
X0145188Y0009835D02*
X0148439Y0009835D01*
X0155188Y0009835D02*
X0158439Y0009835D01*
X0165188Y0009835D02*
X0168439Y0009835D01*
X0175188Y0009835D02*
X0178439Y0009835D01*
X0195986Y0011433D02*
X0196794Y0011433D01*
X0197574Y0019425D02*
X0195134Y0019425D01*
X0229515Y0008236D02*
X0004614Y0008236D01*
X0071694Y0051394D02*
X0259014Y0051394D01*
X0259014Y0052992D02*
X0073293Y0052992D01*
X0074891Y0054591D02*
X0259014Y0054591D01*
X0259014Y0056189D02*
X0076489Y0056189D01*
X0078088Y0057787D02*
X0259014Y0057787D01*
X0259014Y0059386D02*
X0101686Y0059386D01*
X0103285Y0060984D02*
X0259014Y0060984D01*
X0259014Y0062583D02*
X0104883Y0062583D01*
X0106481Y0064181D02*
X0259014Y0064181D01*
X0259014Y0065780D02*
X0108080Y0065780D01*
X0109678Y0067378D02*
X0259014Y0067378D01*
X0259014Y0068976D02*
X0111277Y0068976D01*
X0112875Y0070575D02*
X0259014Y0070575D01*
X0259014Y0072173D02*
X0114474Y0072173D01*
X0116072Y0073772D02*
X0259014Y0073772D01*
X0259014Y0075370D02*
X0117670Y0075370D01*
X0119269Y0076969D02*
X0259014Y0076969D01*
X0259014Y0078567D02*
X0120867Y0078567D01*
X0122466Y0080165D02*
X0259014Y0080165D01*
X0259014Y0081764D02*
X0124064Y0081764D01*
X0125663Y0083362D02*
X0259014Y0083362D01*
X0259014Y0084961D02*
X0127261Y0084961D01*
X0128859Y0086559D02*
X0259014Y0086559D01*
X0259014Y0088157D02*
X0130458Y0088157D01*
X0131014Y0089756D02*
X0259014Y0089756D01*
X0259014Y0091354D02*
X0131014Y0091354D01*
X0131014Y0092953D02*
X0259014Y0092953D01*
X0259014Y0094551D02*
X0131014Y0094551D01*
X0131014Y0096150D02*
X0259014Y0096150D01*
X0259014Y0097748D02*
X0131014Y0097748D01*
X0131014Y0099346D02*
X0259014Y0099346D01*
X0259014Y0100945D02*
X0131014Y0100945D01*
X0132379Y0102543D02*
X0259014Y0102543D01*
X0259014Y0104142D02*
X0135036Y0104142D01*
X0136123Y0105740D02*
X0170222Y0105740D01*
X0173406Y0105740D02*
X0259014Y0105740D01*
X0259014Y0107339D02*
X0175592Y0107339D01*
X0176316Y0108937D02*
X0259014Y0108937D01*
X0259014Y0110535D02*
X0176395Y0110535D01*
X0175905Y0112134D02*
X0259014Y0112134D01*
X0259014Y0113732D02*
X0174600Y0113732D01*
X0169028Y0113732D02*
X0160080Y0113732D01*
X0158482Y0115331D02*
X0259014Y0115331D01*
X0259014Y0116929D02*
X0156883Y0116929D01*
X0155285Y0118528D02*
X0259014Y0118528D01*
X0259014Y0120126D02*
X0153687Y0120126D01*
X0152088Y0121724D02*
X0259014Y0121724D01*
X0259014Y0123323D02*
X0150490Y0123323D01*
X0148891Y0124921D02*
X0259014Y0124921D01*
X0259014Y0126520D02*
X0177873Y0126520D01*
X0175754Y0126520D02*
X0147293Y0126520D01*
X0145694Y0128118D02*
X0173256Y0128118D01*
X0172403Y0129717D02*
X0144096Y0129717D01*
X0140972Y0124921D02*
X0135784Y0124921D01*
X0134217Y0123323D02*
X0142571Y0123323D01*
X0144169Y0121724D02*
X0135248Y0121724D01*
X0136211Y0120126D02*
X0145768Y0120126D01*
X0147366Y0118528D02*
X0136614Y0118528D01*
X0136614Y0116929D02*
X0148965Y0116929D01*
X0150563Y0115331D02*
X0135953Y0115331D01*
X0134627Y0113732D02*
X0152161Y0113732D01*
X0153760Y0112134D02*
X0134839Y0112134D01*
X0136042Y0110535D02*
X0155358Y0110535D01*
X0156957Y0108937D02*
X0136614Y0108937D01*
X0136614Y0107339D02*
X0159017Y0107339D01*
X0180372Y0128118D02*
X0259014Y0128118D01*
X0259014Y0129717D02*
X0216451Y0129717D01*
X0218049Y0131315D02*
X0259014Y0131315D01*
X0259014Y0132913D02*
X0219648Y0132913D01*
X0221246Y0134512D02*
X0259014Y0134512D01*
X0259014Y0136110D02*
X0222844Y0136110D01*
X0224443Y0137709D02*
X0259014Y0137709D01*
X0259014Y0139307D02*
X0226041Y0139307D01*
X0227640Y0140906D02*
X0259014Y0140906D01*
X0259014Y0142504D02*
X0228614Y0142504D01*
X0228614Y0144102D02*
X0259014Y0144102D01*
X0259014Y0145701D02*
X0228614Y0145701D01*
X0228614Y0147299D02*
X0259014Y0147299D01*
X0259014Y0148898D02*
X0228614Y0148898D01*
X0228614Y0150496D02*
X0259014Y0150496D01*
X0259014Y0152094D02*
X0228614Y0152094D01*
X0228614Y0153693D02*
X0259014Y0153693D01*
X0259014Y0155291D02*
X0228614Y0155291D01*
X0228614Y0156890D02*
X0259014Y0156890D01*
X0259014Y0158488D02*
X0228614Y0158488D01*
X0228614Y0160087D02*
X0259014Y0160087D01*
X0259014Y0161685D02*
X0228614Y0161685D01*
X0228614Y0163283D02*
X0259014Y0163283D01*
X0259014Y0164882D02*
X0228614Y0164882D01*
X0229214Y0166480D02*
X0259014Y0166480D01*
X0259014Y0168079D02*
X0230813Y0168079D01*
X0232339Y0169677D02*
X0259014Y0169677D01*
X0259014Y0171276D02*
X0232714Y0171276D01*
X0232714Y0172874D02*
X0259014Y0172874D01*
X0259014Y0174472D02*
X0250473Y0174472D01*
X0250596Y0174535D02*
X0251297Y0175044D01*
X0251909Y0175656D01*
X0252418Y0176357D01*
X0252811Y0177128D01*
X0253078Y0177951D01*
X0253214Y0178806D01*
X0253214Y0179039D01*
X0247917Y0179039D01*
X0247917Y0179439D01*
X0253214Y0179439D01*
X0253214Y0179672D01*
X0253078Y0180527D01*
X0252811Y0181350D01*
X0252418Y0182122D01*
X0251909Y0182822D01*
X0251297Y0183434D01*
X0250596Y0183943D01*
X0249825Y0184336D01*
X0249002Y0184604D01*
X0248147Y0184739D01*
X0247914Y0184739D01*
X0247914Y0179442D01*
X0247513Y0179442D01*
X0247513Y0184739D01*
X0247281Y0184739D01*
X0246426Y0184604D01*
X0245603Y0184336D01*
X0244831Y0183943D01*
X0244131Y0183434D01*
X0243519Y0182822D01*
X0243010Y0182122D01*
X0242617Y0181350D01*
X0242350Y0180527D01*
X0242214Y0179672D01*
X0242214Y0179439D01*
X0247511Y0179439D01*
X0247511Y0179039D01*
X0242214Y0179039D01*
X0242214Y0178806D01*
X0242350Y0177951D01*
X0242617Y0177128D01*
X0243010Y0176357D01*
X0243519Y0175656D01*
X0244131Y0175044D01*
X0244831Y0174535D01*
X0245603Y0174142D01*
X0246426Y0173875D01*
X0247281Y0173739D01*
X0247513Y0173739D01*
X0247513Y0179037D01*
X0247914Y0179037D01*
X0247914Y0173739D01*
X0248147Y0173739D01*
X0249002Y0173875D01*
X0249825Y0174142D01*
X0250596Y0174535D01*
X0252210Y0176071D02*
X0259014Y0176071D01*
X0259014Y0177669D02*
X0252987Y0177669D01*
X0247914Y0177669D02*
X0247513Y0177669D01*
X0247513Y0176071D02*
X0247914Y0176071D01*
X0247914Y0174472D02*
X0247513Y0174472D01*
X0244955Y0174472D02*
X0233774Y0174472D01*
X0235204Y0176071D02*
X0243218Y0176071D01*
X0242441Y0177669D02*
X0235866Y0177669D01*
X0236014Y0179268D02*
X0247511Y0179268D01*
X0247917Y0179268D02*
X0259014Y0179268D01*
X0259014Y0180866D02*
X0252969Y0180866D01*
X0252169Y0182465D02*
X0259014Y0182465D01*
X0259014Y0184063D02*
X0250361Y0184063D01*
X0247914Y0184063D02*
X0247513Y0184063D01*
X0247513Y0182465D02*
X0247914Y0182465D01*
X0247914Y0180866D02*
X0247513Y0180866D01*
X0245067Y0184063D02*
X0233717Y0184063D01*
X0235180Y0182465D02*
X0243259Y0182465D01*
X0242460Y0180866D02*
X0235843Y0180866D01*
X0226111Y0184063D02*
X0150464Y0184063D01*
X0150464Y0182465D02*
X0224648Y0182465D01*
X0223986Y0180866D02*
X0150464Y0180866D01*
X0150031Y0179268D02*
X0223814Y0179268D01*
X0223961Y0177669D02*
X0148606Y0177669D01*
X0147007Y0176071D02*
X0224624Y0176071D01*
X0226054Y0174472D02*
X0184813Y0174472D01*
X0187099Y0172874D02*
X0227114Y0172874D01*
X0226091Y0171276D02*
X0188032Y0171276D01*
X0188414Y0169677D02*
X0224493Y0169677D01*
X0224228Y0169413D02*
X0224228Y0169413D01*
X0223214Y0168079D02*
X0188414Y0168079D01*
X0188414Y0166480D02*
X0223014Y0166480D01*
X0223014Y0164882D02*
X0188414Y0164882D01*
X0188414Y0163283D02*
X0223014Y0163283D01*
X0223014Y0161685D02*
X0188397Y0161685D01*
X0187735Y0160087D02*
X0223014Y0160087D01*
X0223014Y0158488D02*
X0186383Y0158488D01*
X0179245Y0158488D02*
X0176383Y0158488D01*
X0177735Y0160087D02*
X0177893Y0160087D01*
X0169245Y0158488D02*
X0166383Y0158488D01*
X0167735Y0160087D02*
X0167893Y0160087D01*
X0159245Y0158488D02*
X0155288Y0158488D01*
X0153014Y0158488D02*
X0152613Y0158488D01*
X0152613Y0160087D02*
X0153014Y0160087D01*
X0153014Y0161685D02*
X0152613Y0161685D01*
X0152613Y0163283D02*
X0153014Y0163283D01*
X0153014Y0164882D02*
X0152613Y0164882D01*
X0152613Y0166480D02*
X0153014Y0166480D01*
X0153014Y0168079D02*
X0152613Y0168079D01*
X0152613Y0169677D02*
X0153014Y0169677D01*
X0153014Y0171276D02*
X0152613Y0171276D01*
X0152613Y0172874D02*
X0153014Y0172874D01*
X0156250Y0172874D02*
X0158529Y0172874D01*
X0157597Y0171276D02*
X0157388Y0171276D01*
X0160815Y0174472D02*
X0146464Y0174472D01*
X0147099Y0172874D02*
X0149378Y0172874D01*
X0148240Y0171276D02*
X0148031Y0171276D01*
X0147735Y0160087D02*
X0148633Y0160087D01*
X0150340Y0158488D02*
X0146383Y0158488D01*
X0139245Y0158488D02*
X0136383Y0158488D01*
X0135614Y0156890D02*
X0223014Y0156890D01*
X0223014Y0155291D02*
X0136521Y0155291D01*
X0138120Y0153693D02*
X0223014Y0153693D01*
X0223014Y0152094D02*
X0173718Y0152094D01*
X0175317Y0150496D02*
X0223014Y0150496D01*
X0223014Y0148898D02*
X0176915Y0148898D01*
X0178513Y0147299D02*
X0223014Y0147299D01*
X0223014Y0145701D02*
X0179570Y0145701D01*
X0179614Y0144102D02*
X0222918Y0144102D01*
X0221319Y0142504D02*
X0179614Y0142504D01*
X0179614Y0140906D02*
X0219721Y0140906D01*
X0218122Y0139307D02*
X0179614Y0139307D01*
X0179614Y0137709D02*
X0216524Y0137709D01*
X0214926Y0136110D02*
X0179614Y0136110D01*
X0179820Y0134512D02*
X0213327Y0134512D01*
X0174014Y0136110D02*
X0111614Y0136110D01*
X0111614Y0135925D02*
X0111614Y0138153D01*
X0110761Y0140211D01*
X0109186Y0141787D01*
X0108576Y0142039D01*
X0109186Y0142292D01*
X0110761Y0143867D01*
X0111614Y0145925D01*
X0111614Y0148153D01*
X0110761Y0150211D01*
X0109186Y0151787D01*
X0108576Y0152039D01*
X0109186Y0152292D01*
X0110761Y0153867D01*
X0111614Y0155925D01*
X0111614Y0158153D01*
X0110761Y0160211D01*
X0109186Y0161787D01*
X0110813Y0160087D02*
X0127893Y0160087D01*
X0129245Y0158488D02*
X0111475Y0158488D01*
X0111614Y0156890D02*
X0130014Y0156890D01*
X0130014Y0155291D02*
X0111351Y0155291D01*
X0110587Y0153693D02*
X0130341Y0153693D01*
X0131799Y0152094D02*
X0108709Y0152094D01*
X0110477Y0150496D02*
X0133398Y0150496D01*
X0134996Y0148898D02*
X0111306Y0148898D01*
X0111614Y0147299D02*
X0137113Y0147299D01*
X0137735Y0160087D02*
X0137893Y0160087D01*
X0156994Y0160087D02*
X0157893Y0160087D01*
X0167099Y0172874D02*
X0168529Y0172874D01*
X0170815Y0174472D02*
X0164813Y0174472D01*
X0174813Y0174472D02*
X0180815Y0174472D01*
X0178529Y0172874D02*
X0177099Y0172874D01*
X0150464Y0185661D02*
X0259014Y0185661D01*
X0259014Y0187260D02*
X0150464Y0187260D01*
X0150464Y0188858D02*
X0259014Y0188858D01*
X0259014Y0190457D02*
X0150464Y0190457D01*
X0150464Y0192055D02*
X0259014Y0192055D01*
X0259014Y0193654D02*
X0150464Y0193654D01*
X0150464Y0195252D02*
X0259014Y0195252D01*
X0259014Y0196850D02*
X0150464Y0196850D01*
X0150464Y0198449D02*
X0259014Y0198449D01*
X0173791Y0144102D02*
X0110859Y0144102D01*
X0111520Y0145701D02*
X0172193Y0145701D01*
X0174014Y0142504D02*
X0109398Y0142504D01*
X0110067Y0140906D02*
X0174014Y0140906D01*
X0174014Y0139307D02*
X0111136Y0139307D01*
X0111614Y0137709D02*
X0174014Y0137709D01*
X0173808Y0134512D02*
X0111028Y0134512D01*
X0110761Y0133867D02*
X0111614Y0135925D01*
X0110761Y0133867D02*
X0109186Y0132292D01*
X0107798Y0131717D01*
X0107933Y0131673D01*
X0108635Y0131315D01*
X0109808Y0132913D02*
X0121748Y0132913D01*
X0133880Y0132913D02*
X0172632Y0132913D01*
X0172233Y0131315D02*
X0135658Y0131315D01*
X0127814Y0108039D02*
X0127814Y0090039D01*
X0099814Y0062039D01*
X0094831Y0120126D02*
X0004614Y0120126D01*
X0004614Y0121724D02*
X0096380Y0121724D01*
X0096259Y0123323D02*
X0004614Y0123323D01*
X0004614Y0124921D02*
X0095081Y0124921D01*
X0094634Y0126520D02*
X0004614Y0126520D01*
X0004614Y0128118D02*
X0094723Y0128118D01*
X0095338Y0129660D02*
X0095800Y0130296D01*
X0096357Y0130853D01*
X0096993Y0131315D01*
X0095820Y0132913D02*
X0004614Y0132913D01*
X0004614Y0134512D02*
X0094599Y0134512D01*
X0094014Y0136110D02*
X0004614Y0136110D01*
X0004614Y0137709D02*
X0094014Y0137709D01*
X0094492Y0139307D02*
X0004614Y0139307D01*
X0004614Y0140906D02*
X0095561Y0140906D01*
X0096230Y0142504D02*
X0004614Y0142504D01*
X0004614Y0144102D02*
X0094769Y0144102D01*
X0094107Y0145701D02*
X0004614Y0145701D01*
X0004614Y0147299D02*
X0094014Y0147299D01*
X0094323Y0148898D02*
X0004614Y0148898D01*
X0004614Y0150496D02*
X0095151Y0150496D01*
X0096919Y0152094D02*
X0004614Y0152094D01*
X0004614Y0153693D02*
X0095041Y0153693D01*
X0094276Y0155291D02*
X0004614Y0155291D01*
X0004614Y0156890D02*
X0094014Y0156890D01*
X0094153Y0158488D02*
X0004614Y0158488D01*
X0004614Y0160087D02*
X0094815Y0160087D01*
X0096340Y0161685D02*
X0004614Y0161685D01*
X0050448Y0200047D02*
X0053180Y0200047D01*
X0060448Y0200047D02*
X0063180Y0200047D01*
X0070448Y0200047D02*
X0073180Y0200047D01*
X0080448Y0200047D02*
X0083180Y0200047D01*
X0090448Y0200047D02*
X0093180Y0200047D01*
X0150464Y0200047D02*
X0153180Y0200047D01*
X0160448Y0200047D02*
X0163180Y0200047D01*
X0241002Y0024220D02*
X0259014Y0024220D01*
X0259014Y0022622D02*
X0243328Y0022622D01*
X0244843Y0021024D02*
X0259014Y0021024D01*
X0259014Y0019425D02*
X0245833Y0019425D01*
X0246443Y0017827D02*
X0259014Y0017827D01*
X0259014Y0016228D02*
X0246742Y0016228D01*
X0246887Y0014630D02*
X0259014Y0014630D01*
X0259014Y0013031D02*
X0246588Y0013031D01*
X0246289Y0011433D02*
X0259014Y0011433D01*
X0259014Y0009835D02*
X0245326Y0009835D01*
X0244336Y0008236D02*
X0259014Y0008236D01*
D14*
X0171814Y0110039D02*
X0159814Y0110039D01*
X0141814Y0128039D01*
X0127814Y0128039D01*
X0137814Y0150039D02*
X0171814Y0150039D01*
X0176814Y0145039D01*
X0176814Y0131039D01*
X0213814Y0131039D01*
X0225814Y0143039D01*
X0225814Y0167039D01*
X0229914Y0171139D01*
X0229914Y0179239D01*
X0137814Y0150039D02*
X0132814Y0155039D01*
X0132814Y0166039D01*
X0095814Y0182039D02*
X0086814Y0191039D01*
X0052814Y0191039D01*
X0046814Y0197039D01*
X0046814Y0205039D01*
D15*
X0142814Y0177039D02*
X0142814Y0166039D01*
X0142814Y0177039D02*
X0146814Y0181039D01*
X0146814Y0205039D01*
M02*
