%
M48
M72
T01C0.0236
T02C0.0400
T03C0.1300
%
T01
X4361Y4965
X4061Y8465
X6761Y12065
X8661Y9165
X9961Y9065
X15961Y7965
X18461Y10265
X21361Y11365
X18461Y16365
X14161Y20065
X8961Y18665
X7961Y17465
X8661Y15965
X6761Y15765
X4186Y15440
X3361Y15465
X2461Y13365
X4861Y18865
X4061Y19965
X4061Y20665
X11761Y14065
T02
X2161Y2865
X3161Y2865
X4161Y2865
X5161Y2865
X6161Y2865
X7161Y2865
X8161Y2865
X9161Y2865
X10661Y2865
X11661Y2865
X12661Y2865
X13661Y2865
X14661Y2865
X15661Y2865
X16661Y2865
X17661Y2865
X16061Y4665
X15061Y4665
X14061Y4665
X13061Y4665
X12061Y4665
X11061Y4665
X10061Y4665
X9061Y4665
X16261Y12665
X17261Y12665
X17261Y13665
X16261Y13665
X16261Y14665
X17261Y14665
X17061Y17365
X18061Y17365
X16061Y17365
X15061Y17365
X14061Y17365
X13061Y17365
X15581Y19975
X15581Y21755
X14161Y21865
X13161Y21865
X12161Y21865
X11161Y21865
X10161Y21865
X9161Y21865
X7161Y21865
X6161Y21865
X5161Y21865
X4161Y21865
X3161Y21865
X2161Y21865
X18141Y21755
X18141Y19975
T03
X1661Y16565
M30
