%
M48
M72
T01C0.0236
T02C0.0400
T03C0.1300
%
T01
X17181Y11004
X17681Y13104
X22281Y12604
X17481Y7204
X21331Y7079
X9581Y18204
T02
X4681Y1504
X5681Y1504
X6681Y1504
X7681Y1504
X8681Y1504
X9681Y1504
X10681Y1504
X11681Y1504
X13181Y1504
X14181Y1504
X15181Y1504
X16181Y1504
X17181Y1504
X18181Y1504
X19181Y1504
X20181Y1504
X10281Y8704
X10281Y9704
X10281Y10704
X10281Y11704
X10281Y12704
X10281Y13704
X10281Y14704
X10281Y15704
X13281Y16604
X14281Y16604
X15281Y16604
X16281Y16604
X17281Y16604
X18281Y16604
X22991Y17924
X24771Y17924
X24771Y20484
X22991Y20484
X16681Y20504
X15681Y20504
X14681Y20504
X13681Y20504
X12681Y20504
X11681Y20504
X9681Y20504
X8681Y20504
X7681Y20504
X6681Y20504
X5681Y20504
X4681Y20504
X12781Y12804
X12781Y11804
X12781Y10804
T03
X1681Y11004
X3681Y18504
X23681Y1504
M30
