G75*
G70*
%OFA0B0*%
%FSLAX24Y24*%
%IPPOS*%
%LPD*%
%AMOC8*
5,1,8,0,0,1.08239X$1,22.5*
%
%ADD10C,0.1380*%
%ADD11C,0.0820*%
%ADD12R,0.0474X0.0631*%
%ADD13R,0.0592X0.0671*%
%ADD14R,0.0671X0.0592*%
%ADD15R,0.0316X0.0946*%
%ADD16R,0.0631X0.0474*%
%ADD17R,0.0828X0.0828*%
%ADD18R,0.1640X0.1640*%
%ADD19R,0.1330X0.1330*%
%ADD20R,0.0710X0.0434*%
%ADD21R,0.0592X0.0592*%
%ADD22R,0.1694X0.1694*%
%ADD23C,0.0720*%
%ADD24R,0.0946X0.0316*%
%ADD25C,0.0720*%
%ADD26OC8,0.0720*%
D10*
X001661Y016565D03*
D11*
X002161Y002865D03*
X003161Y002865D03*
X004161Y002865D03*
X005161Y002865D03*
X006161Y002865D03*
X007161Y002865D03*
X008161Y002865D03*
X009161Y002865D03*
X010661Y002865D03*
X011661Y002865D03*
X012661Y002865D03*
X013661Y002865D03*
X014661Y002865D03*
X015661Y002865D03*
X016661Y002865D03*
X017661Y002865D03*
X018141Y019975D03*
X018141Y021755D03*
X015581Y021755D03*
X014161Y021865D03*
X013161Y021865D03*
X012161Y021865D03*
X011161Y021865D03*
X010161Y021865D03*
X009161Y021865D03*
X007161Y021865D03*
X006161Y021865D03*
X005161Y021865D03*
X004161Y021865D03*
X003161Y021865D03*
X002161Y021865D03*
X015581Y019975D03*
D12*
X006735Y006798D03*
X005987Y006798D03*
X006361Y005931D03*
D13*
X007527Y006765D03*
X008196Y006765D03*
X005796Y008265D03*
X005127Y008265D03*
X005127Y009165D03*
X005796Y009165D03*
X005796Y010165D03*
X005127Y010165D03*
X005127Y011065D03*
X005796Y011065D03*
X004496Y011865D03*
X003827Y011865D03*
X003827Y012765D03*
X004496Y012765D03*
X004196Y013865D03*
X003527Y013865D03*
X003527Y014765D03*
X004196Y014765D03*
X005027Y015965D03*
X005696Y015965D03*
X005696Y016965D03*
X005027Y016965D03*
X005027Y017965D03*
X005696Y017965D03*
X006627Y017965D03*
X007296Y017965D03*
X007296Y016965D03*
X006627Y016965D03*
X007327Y019165D03*
X007996Y019165D03*
X007996Y020065D03*
X007327Y020065D03*
X012927Y019165D03*
X013596Y019165D03*
X019427Y017665D03*
X020096Y017665D03*
X020096Y016765D03*
X019427Y016765D03*
X009996Y009865D03*
X009327Y009865D03*
X004996Y006765D03*
X004327Y006765D03*
X004327Y005765D03*
X004996Y005765D03*
X019827Y003365D03*
X020496Y003365D03*
X021727Y003365D03*
X022396Y003365D03*
D14*
X017661Y007930D03*
X017661Y008599D03*
X016761Y008599D03*
X016761Y007930D03*
X009961Y011230D03*
X009961Y011899D03*
X009961Y012830D03*
X009961Y013499D03*
X009961Y014430D03*
X009961Y015099D03*
X009961Y016130D03*
X009961Y016799D03*
X003161Y020030D03*
X003161Y020699D03*
X002161Y020699D03*
X002161Y020030D03*
X002961Y010799D03*
X002961Y010130D03*
X002961Y008699D03*
X002961Y008030D03*
X003461Y005299D03*
X003461Y004630D03*
X006761Y008330D03*
X006761Y008999D03*
X007761Y009630D03*
X007761Y010299D03*
D15*
X007761Y012841D03*
X007261Y012841D03*
X006761Y012841D03*
X006261Y012841D03*
X005761Y012841D03*
X005261Y012841D03*
X005261Y014888D03*
X005761Y014888D03*
X006261Y014888D03*
X006761Y014888D03*
X007261Y014888D03*
X007761Y014888D03*
X008261Y014888D03*
X008261Y012841D03*
X018511Y009088D03*
X019011Y009088D03*
X019511Y009088D03*
X020011Y009088D03*
X020011Y007041D03*
X019511Y007041D03*
X019011Y007041D03*
X018511Y007041D03*
D16*
X014428Y015591D03*
X014428Y016339D03*
X015294Y015965D03*
X006494Y019165D03*
X005628Y019539D03*
X005628Y018791D03*
D17*
X002261Y005565D03*
X002261Y004265D03*
D18*
X021361Y012765D03*
D19*
X021361Y015865D03*
X021361Y009665D03*
D20*
X010783Y011813D03*
X010783Y012916D03*
X010783Y015113D03*
X010783Y016216D03*
D21*
X011740Y015665D03*
X011740Y012365D03*
D22*
X018611Y004965D03*
X021761Y004965D03*
D23*
X016061Y004985D02*
X016061Y004345D01*
X015061Y004345D02*
X015061Y004985D01*
X014061Y004985D02*
X014061Y004345D01*
X013061Y004345D02*
X013061Y004985D01*
X012061Y004985D02*
X012061Y004345D01*
X011061Y004345D02*
X011061Y004985D01*
X010061Y004985D02*
X010061Y004345D01*
X009061Y004345D02*
X009061Y004985D01*
X013061Y017045D02*
X013061Y017685D01*
X014061Y017685D02*
X014061Y017045D01*
X015061Y017045D02*
X015061Y017685D01*
X016061Y017685D02*
X016061Y017045D01*
X017061Y017045D02*
X017061Y017685D01*
X018061Y017685D02*
X018061Y017045D01*
D24*
X019738Y018565D03*
X019738Y019065D03*
X019738Y019565D03*
X019738Y020065D03*
X019738Y020565D03*
X019738Y021065D03*
X019738Y021565D03*
X021785Y021565D03*
X021785Y021065D03*
X021785Y020565D03*
X021785Y020065D03*
X021785Y019565D03*
X021785Y019065D03*
X021785Y018565D03*
D25*
X016261Y014665D03*
D26*
X017261Y014665D03*
X017261Y013665D03*
X016261Y013665D03*
X016261Y012665D03*
X017261Y012665D03*
M02*
