G75*
G70*
%OFA0B0*%
%FSLAX24Y24*%
%IPPOS*%
%LPD*%
%AMOC8*
5,1,8,0,0,1.08239X$1,22.5*
%
%ADD10C,0.0000*%
%ADD11C,0.0080*%
%ADD12C,0.0740*%
%ADD13R,0.0394X0.0551*%
%ADD14R,0.0512X0.0591*%
%ADD15R,0.0591X0.0512*%
%ADD16R,0.0236X0.0866*%
%ADD17R,0.0551X0.0394*%
%ADD18R,0.0748X0.0748*%
%ADD19R,0.1560X0.1560*%
%ADD20R,0.1250X0.1250*%
%ADD21R,0.0630X0.0354*%
%ADD22R,0.0512X0.0512*%
%ADD23R,0.1614X0.1614*%
%ADD24C,0.0640*%
%ADD25R,0.0866X0.0236*%
%ADD26C,0.0640*%
%ADD27OC8,0.0640*%
%ADD28C,0.0250*%
%ADD29C,0.0436*%
%ADD30C,0.0160*%
D10*
X000161Y001865D02*
X000161Y022861D01*
X023681Y022861D01*
X023681Y001865D01*
X000161Y001865D01*
X001011Y016565D02*
X001013Y016615D01*
X001019Y016665D01*
X001029Y016715D01*
X001042Y016763D01*
X001059Y016811D01*
X001080Y016857D01*
X001104Y016901D01*
X001132Y016943D01*
X001163Y016983D01*
X001197Y017020D01*
X001234Y017055D01*
X001273Y017086D01*
X001314Y017115D01*
X001358Y017140D01*
X001404Y017162D01*
X001451Y017180D01*
X001499Y017194D01*
X001548Y017205D01*
X001598Y017212D01*
X001648Y017215D01*
X001699Y017214D01*
X001749Y017209D01*
X001799Y017200D01*
X001847Y017188D01*
X001895Y017171D01*
X001941Y017151D01*
X001986Y017128D01*
X002029Y017101D01*
X002069Y017071D01*
X002107Y017038D01*
X002142Y017002D01*
X002175Y016963D01*
X002204Y016922D01*
X002230Y016879D01*
X002253Y016834D01*
X002272Y016787D01*
X002287Y016739D01*
X002299Y016690D01*
X002307Y016640D01*
X002311Y016590D01*
X002311Y016540D01*
X002307Y016490D01*
X002299Y016440D01*
X002287Y016391D01*
X002272Y016343D01*
X002253Y016296D01*
X002230Y016251D01*
X002204Y016208D01*
X002175Y016167D01*
X002142Y016128D01*
X002107Y016092D01*
X002069Y016059D01*
X002029Y016029D01*
X001986Y016002D01*
X001941Y015979D01*
X001895Y015959D01*
X001847Y015942D01*
X001799Y015930D01*
X001749Y015921D01*
X001699Y015916D01*
X001648Y015915D01*
X001598Y015918D01*
X001548Y015925D01*
X001499Y015936D01*
X001451Y015950D01*
X001404Y015968D01*
X001358Y015990D01*
X001314Y016015D01*
X001273Y016044D01*
X001234Y016075D01*
X001197Y016110D01*
X001163Y016147D01*
X001132Y016187D01*
X001104Y016229D01*
X001080Y016273D01*
X001059Y016319D01*
X001042Y016367D01*
X001029Y016415D01*
X001019Y016465D01*
X001013Y016515D01*
X001011Y016565D01*
D11*
X000161Y022865D02*
X000161Y001865D01*
X023661Y001865D01*
X023661Y022865D01*
X000161Y022865D01*
X002161Y021865D02*
X002161Y020699D01*
X002161Y020030D02*
X003161Y020030D01*
X003996Y020030D01*
X004061Y019965D01*
X004535Y019539D02*
X004361Y019365D01*
X004361Y017630D01*
X005027Y016965D01*
X005027Y015965D01*
X005061Y015930D01*
X005061Y015565D01*
X005261Y015365D01*
X005261Y014888D01*
X005761Y014888D02*
X005761Y013865D01*
X005361Y013465D01*
X004861Y013465D01*
X004496Y013099D01*
X004496Y012765D01*
X005261Y012841D02*
X005261Y012065D01*
X005061Y011865D01*
X004496Y011865D01*
X005127Y011234D01*
X005127Y011065D01*
X005127Y010165D01*
X005761Y010130D02*
X005761Y009765D01*
X005661Y009665D01*
X004161Y009665D01*
X003661Y010165D01*
X003661Y010565D01*
X003427Y010799D01*
X002961Y010799D01*
X002961Y010130D02*
X002961Y008699D01*
X002961Y008030D02*
X003696Y008030D01*
X004161Y007565D01*
X006461Y007565D01*
X006661Y007365D01*
X006661Y006872D01*
X006735Y006798D01*
X005987Y006798D02*
X005954Y006765D01*
X004996Y006765D01*
X004996Y005765D01*
X004327Y005765D02*
X003661Y005765D01*
X003461Y005565D01*
X003461Y005299D01*
X002261Y005299D01*
X002261Y005565D01*
X001221Y005722D02*
X001221Y005895D01*
X001135Y005982D01*
X000788Y005982D01*
X000701Y005895D01*
X000701Y005722D01*
X000788Y005635D01*
X001135Y005635D01*
X001221Y005722D01*
X001135Y005430D02*
X001221Y005343D01*
X001221Y005083D01*
X000701Y005083D01*
X000701Y005343D01*
X000788Y005430D01*
X000874Y005430D01*
X000961Y005343D01*
X000961Y005083D01*
X000961Y005343D02*
X001048Y005430D01*
X001135Y005430D01*
X001221Y006188D02*
X000701Y006188D01*
X000701Y006448D01*
X000788Y006534D01*
X000961Y006534D01*
X001048Y006448D01*
X001048Y006188D01*
X001048Y006361D02*
X001221Y006534D01*
X001221Y006740D02*
X000701Y006740D01*
X001221Y007087D01*
X000701Y007087D01*
X000788Y007845D02*
X000874Y007845D01*
X001221Y008192D01*
X001048Y008192D02*
X001221Y008018D01*
X001221Y007932D01*
X001135Y007845D01*
X001048Y007845D01*
X000874Y008018D01*
X000788Y008018D01*
X000701Y007932D01*
X000788Y007845D01*
X000788Y008397D02*
X000874Y008397D01*
X001221Y008744D01*
X001048Y008744D02*
X001221Y008571D01*
X001221Y008484D01*
X001135Y008397D01*
X001048Y008397D01*
X000874Y008571D01*
X000788Y008571D01*
X000701Y008484D01*
X000788Y008397D01*
X001135Y009502D02*
X001221Y009589D01*
X001221Y009676D01*
X001135Y009762D01*
X000701Y009762D01*
X000701Y009676D02*
X000701Y009849D01*
X000788Y010055D02*
X001135Y010055D01*
X001221Y010141D01*
X001221Y010315D01*
X001135Y010402D01*
X000788Y010402D01*
X000701Y010315D01*
X000701Y010141D01*
X000788Y010055D01*
X000788Y010607D02*
X000874Y010607D01*
X000961Y010694D01*
X000961Y010867D01*
X001048Y010954D01*
X001135Y010954D01*
X001221Y010867D01*
X001221Y010694D01*
X001135Y010607D01*
X000788Y010607D02*
X000701Y010694D01*
X000701Y010867D01*
X000788Y010954D01*
X000701Y011159D02*
X001221Y011159D01*
X000961Y011159D02*
X000961Y011506D01*
X000701Y011506D02*
X001221Y011506D01*
X001221Y012264D02*
X000701Y012264D01*
X000701Y012611D01*
X000701Y012817D02*
X000701Y013077D01*
X000788Y013164D01*
X000961Y013164D01*
X001048Y013077D01*
X001048Y012817D01*
X001048Y012990D02*
X001221Y013164D01*
X001221Y013369D02*
X001221Y013543D01*
X001221Y013456D02*
X000701Y013456D01*
X000701Y013369D02*
X000701Y013543D01*
X000701Y013738D02*
X001221Y013738D01*
X001221Y014084D01*
X001221Y014290D02*
X000701Y014290D01*
X001221Y014637D01*
X000701Y014637D01*
X000701Y014842D02*
X000701Y015103D01*
X000788Y015189D01*
X001135Y015189D01*
X001221Y015103D01*
X001221Y014842D01*
X000701Y014842D01*
X000701Y014084D02*
X000701Y013738D01*
X000961Y013738D02*
X000961Y013911D01*
X001221Y012817D02*
X000701Y012817D01*
X000961Y012438D02*
X000961Y012264D01*
X003827Y011865D02*
X003827Y012765D01*
X005761Y012841D02*
X005796Y012806D01*
X005796Y011065D01*
X005796Y010165D01*
X005761Y010130D01*
X006261Y009765D02*
X006261Y012841D01*
X006761Y012841D02*
X006761Y013765D01*
X006961Y013965D01*
X009961Y013965D01*
X009961Y013499D01*
X009961Y013965D02*
X009961Y014430D01*
X009961Y015099D02*
X009496Y015099D01*
X008661Y014265D01*
X007461Y014265D01*
X007261Y014465D01*
X007261Y014888D01*
X007761Y014888D02*
X007761Y015865D01*
X008461Y016565D01*
X008461Y018165D01*
X008061Y018565D01*
X007561Y018565D01*
X007327Y018799D01*
X007327Y019165D01*
X007327Y020065D01*
X007996Y020065D02*
X007996Y019165D01*
X008461Y019165D01*
X008961Y018665D01*
X007961Y017465D02*
X007461Y017965D01*
X007296Y017965D01*
X007296Y016965D01*
X007296Y016299D01*
X006761Y015765D01*
X006261Y016599D02*
X006627Y016965D01*
X006261Y016599D02*
X006261Y014888D01*
X005761Y014888D02*
X005761Y015899D01*
X005696Y015965D01*
X005696Y016965D01*
X008261Y015665D02*
X008261Y014888D01*
X008261Y015665D02*
X008561Y015965D01*
X008661Y015965D01*
X009961Y016130D02*
X009961Y015099D01*
X010783Y015113D01*
X011740Y015665D02*
X011761Y015686D01*
X011761Y016565D01*
X011527Y016799D01*
X009961Y016799D01*
X011740Y015665D02*
X011740Y014086D01*
X011761Y014065D01*
X011761Y012386D01*
X011740Y012365D01*
X011761Y012343D01*
X011761Y011465D01*
X011527Y011230D01*
X009961Y011230D01*
X009961Y011899D02*
X010783Y011813D01*
X009961Y011899D02*
X009961Y012830D01*
X009396Y012830D01*
X008661Y013565D01*
X007961Y013565D01*
X007761Y013365D01*
X007761Y012841D01*
X007261Y012841D02*
X007261Y011765D01*
X007761Y011265D01*
X007761Y010299D01*
X007796Y010265D01*
X008561Y010265D01*
X008961Y009865D01*
X009327Y009865D01*
X009361Y010465D02*
X008261Y011565D01*
X008261Y012841D01*
X009361Y010465D02*
X011861Y010465D01*
X016061Y014665D01*
X016261Y014665D01*
X017261Y014665D02*
X017461Y014865D01*
X022261Y014865D01*
X022561Y015165D01*
X022561Y019465D01*
X022461Y019565D01*
X021785Y019565D01*
X021161Y020065D02*
X021061Y019965D01*
X021061Y018965D01*
X020911Y018815D01*
X019111Y018815D01*
X018861Y018565D01*
X018861Y018165D01*
X018061Y017365D01*
X017061Y017365D02*
X017061Y016465D01*
X016561Y015965D01*
X015294Y015965D01*
X014428Y016339D02*
X012687Y016339D01*
X012161Y016865D01*
X012161Y018665D01*
X012661Y019165D01*
X012927Y019165D01*
X012927Y019830D01*
X013161Y020065D01*
X014161Y020065D01*
X014961Y020665D02*
X015061Y020565D01*
X019738Y020565D01*
X020461Y020565D01*
X020761Y020865D01*
X020761Y021765D01*
X020961Y021965D01*
X022661Y021965D01*
X022861Y021765D01*
X022861Y015065D01*
X022261Y014465D01*
X020461Y014465D01*
X019561Y013565D01*
X019561Y009138D01*
X019511Y009088D01*
X020011Y009088D02*
X020061Y009138D01*
X020061Y013565D01*
X020561Y014065D01*
X022261Y014065D01*
X023061Y014865D01*
X023061Y021865D01*
X022661Y022265D01*
X020861Y022265D01*
X020461Y021865D01*
X020461Y021265D01*
X020261Y021065D01*
X019738Y021065D01*
X014961Y021065D01*
X014761Y021265D01*
X003761Y021265D01*
X003161Y021865D01*
X003161Y020699D01*
X004061Y020665D02*
X014961Y020665D01*
X015581Y019975D02*
X014771Y019165D01*
X013596Y019165D01*
X014361Y018665D02*
X014061Y018365D01*
X014061Y017365D01*
X015061Y017365D02*
X015061Y018165D01*
X015261Y018365D01*
X018061Y018365D01*
X018761Y019065D01*
X019738Y019065D01*
X019738Y019565D02*
X018761Y019565D01*
X017861Y018665D01*
X014361Y018665D01*
X016261Y013665D02*
X017261Y013665D01*
X017261Y012665D02*
X017261Y010365D01*
X015161Y008265D01*
X015161Y007465D01*
X016861Y005765D01*
X016861Y004265D01*
X016161Y003565D01*
X004861Y003565D01*
X004161Y002865D01*
X003961Y004365D02*
X005761Y004365D01*
X006361Y004965D01*
X006361Y005931D01*
X004327Y005765D02*
X004327Y004999D01*
X004361Y004965D01*
X003961Y004365D02*
X003696Y004630D01*
X003461Y004630D01*
X003227Y004630D01*
X002861Y004265D01*
X002261Y004265D01*
X001221Y004238D02*
X001221Y004064D01*
X001135Y003978D01*
X000788Y003978D01*
X000701Y004064D01*
X000701Y004238D01*
X000788Y004325D01*
X001135Y004325D02*
X001221Y004238D01*
X001221Y003783D02*
X001221Y003609D01*
X001221Y003696D02*
X000701Y003696D01*
X000701Y003609D02*
X000701Y003783D01*
X000788Y003404D02*
X000961Y003404D01*
X001048Y003317D01*
X001048Y003057D01*
X001221Y003057D02*
X000701Y003057D01*
X000701Y003317D01*
X000788Y003404D01*
X001048Y003230D02*
X001221Y003404D01*
X001221Y002851D02*
X001221Y002505D01*
X000701Y002505D01*
X000701Y002851D01*
X000961Y002678D02*
X000961Y002505D01*
X004327Y005765D02*
X004327Y006765D01*
X004261Y008265D02*
X004061Y008465D01*
X004261Y008265D02*
X005127Y008265D01*
X005127Y009165D01*
X005796Y009165D02*
X005796Y009299D01*
X006261Y009765D01*
X005796Y009165D02*
X005796Y008265D01*
X006696Y008265D01*
X006761Y008330D01*
X007761Y009630D02*
X008196Y009630D01*
X008661Y009165D01*
X009961Y009065D02*
X009996Y009099D01*
X009996Y009865D01*
X014561Y008465D02*
X014561Y006565D01*
X013961Y005965D01*
X011761Y005965D01*
X011061Y005265D01*
X011061Y004665D01*
X014561Y008465D02*
X016261Y010165D01*
X016261Y012665D01*
X021361Y009665D02*
X021361Y008465D01*
X020961Y008065D01*
X019761Y008065D01*
X019511Y007815D01*
X019511Y007041D01*
X020011Y007041D02*
X020011Y006415D01*
X019861Y006265D01*
X019361Y006265D01*
X019261Y006365D01*
X019261Y007765D01*
X019061Y007965D01*
X017696Y007965D01*
X017661Y007930D01*
X017661Y007965D02*
X017761Y007865D01*
X017761Y007565D01*
X018161Y007165D01*
X018161Y006265D01*
X017961Y006065D01*
X017661Y006065D01*
X017461Y005865D01*
X017461Y004065D01*
X016661Y003265D01*
X016661Y002865D01*
X017661Y003865D02*
X017461Y004065D01*
X017661Y003865D02*
X019161Y003865D01*
X019361Y003665D01*
X019361Y002965D01*
X019461Y002865D01*
X020361Y002865D01*
X020496Y002999D01*
X020496Y003365D01*
X021727Y003365D01*
X021761Y003330D01*
X021761Y002965D01*
X021861Y002865D01*
X022761Y002865D01*
X022861Y002965D01*
X022861Y005865D01*
X022661Y006065D01*
X020361Y006065D01*
X020011Y006415D01*
X019561Y005965D02*
X020561Y004965D01*
X021761Y004965D01*
X022396Y004330D01*
X022396Y003365D01*
X019827Y003365D02*
X019827Y003749D01*
X018611Y004965D01*
X018511Y005065D01*
X018511Y007041D01*
X019011Y007041D02*
X019011Y006015D01*
X019061Y005965D01*
X019561Y005965D01*
X007327Y019165D02*
X006494Y019165D01*
X005628Y019539D02*
X004535Y019539D01*
D12*
X004161Y021865D03*
X003161Y021865D03*
X002161Y021865D03*
X005161Y021865D03*
X006161Y021865D03*
X007161Y021865D03*
X009161Y021865D03*
X010161Y021865D03*
X011161Y021865D03*
X012161Y021865D03*
X013161Y021865D03*
X014161Y021865D03*
X015581Y021755D03*
X015581Y019975D03*
X018141Y019975D03*
X018141Y021755D03*
X017661Y002865D03*
X016661Y002865D03*
X015661Y002865D03*
X014661Y002865D03*
X013661Y002865D03*
X012661Y002865D03*
X011661Y002865D03*
X010661Y002865D03*
X009161Y002865D03*
X008161Y002865D03*
X007161Y002865D03*
X006161Y002865D03*
X005161Y002865D03*
X004161Y002865D03*
X003161Y002865D03*
X002161Y002865D03*
D13*
X006361Y005931D03*
X005987Y006798D03*
X006735Y006798D03*
D14*
X007527Y006765D03*
X008196Y006765D03*
X005796Y008265D03*
X005127Y008265D03*
X005127Y009165D03*
X005796Y009165D03*
X005796Y010165D03*
X005127Y010165D03*
X005127Y011065D03*
X005796Y011065D03*
X004496Y011865D03*
X003827Y011865D03*
X003827Y012765D03*
X004496Y012765D03*
X004196Y013865D03*
X003527Y013865D03*
X003527Y014765D03*
X004196Y014765D03*
X005027Y015965D03*
X005696Y015965D03*
X005696Y016965D03*
X005027Y016965D03*
X005027Y017965D03*
X005696Y017965D03*
X006627Y017965D03*
X007296Y017965D03*
X007296Y016965D03*
X006627Y016965D03*
X007327Y019165D03*
X007996Y019165D03*
X007996Y020065D03*
X007327Y020065D03*
X012927Y019165D03*
X013596Y019165D03*
X019427Y017665D03*
X020096Y017665D03*
X020096Y016765D03*
X019427Y016765D03*
X009996Y009865D03*
X009327Y009865D03*
X004996Y006765D03*
X004327Y006765D03*
X004327Y005765D03*
X004996Y005765D03*
X019827Y003365D03*
X020496Y003365D03*
X021727Y003365D03*
X022396Y003365D03*
D15*
X017661Y007930D03*
X017661Y008599D03*
X016761Y008599D03*
X016761Y007930D03*
X009961Y011230D03*
X009961Y011899D03*
X009961Y012830D03*
X009961Y013499D03*
X009961Y014430D03*
X009961Y015099D03*
X009961Y016130D03*
X009961Y016799D03*
X003161Y020030D03*
X003161Y020699D03*
X002161Y020699D03*
X002161Y020030D03*
X002961Y010799D03*
X002961Y010130D03*
X002961Y008699D03*
X002961Y008030D03*
X003461Y005299D03*
X003461Y004630D03*
X006761Y008330D03*
X006761Y008999D03*
X007761Y009630D03*
X007761Y010299D03*
D16*
X007761Y012841D03*
X007261Y012841D03*
X006761Y012841D03*
X006261Y012841D03*
X005761Y012841D03*
X005261Y012841D03*
X005261Y014888D03*
X005761Y014888D03*
X006261Y014888D03*
X006761Y014888D03*
X007261Y014888D03*
X007761Y014888D03*
X008261Y014888D03*
X008261Y012841D03*
X018511Y009088D03*
X019011Y009088D03*
X019511Y009088D03*
X020011Y009088D03*
X020011Y007041D03*
X019511Y007041D03*
X019011Y007041D03*
X018511Y007041D03*
D17*
X014428Y015591D03*
X014428Y016339D03*
X015294Y015965D03*
X006494Y019165D03*
X005628Y019539D03*
X005628Y018791D03*
D18*
X002261Y005565D03*
X002261Y004265D03*
D19*
X021361Y012765D03*
D20*
X021361Y015865D03*
X021361Y009665D03*
D21*
X010783Y011813D03*
X010783Y012916D03*
X010783Y015113D03*
X010783Y016216D03*
D22*
X011740Y015665D03*
X011740Y012365D03*
D23*
X018611Y004965D03*
X021761Y004965D03*
D24*
X016061Y004985D02*
X016061Y004345D01*
X015061Y004345D02*
X015061Y004985D01*
X014061Y004985D02*
X014061Y004345D01*
X013061Y004345D02*
X013061Y004985D01*
X012061Y004985D02*
X012061Y004345D01*
X011061Y004345D02*
X011061Y004985D01*
X010061Y004985D02*
X010061Y004345D01*
X009061Y004345D02*
X009061Y004985D01*
X013061Y017045D02*
X013061Y017685D01*
X014061Y017685D02*
X014061Y017045D01*
X015061Y017045D02*
X015061Y017685D01*
X016061Y017685D02*
X016061Y017045D01*
X017061Y017045D02*
X017061Y017685D01*
X018061Y017685D02*
X018061Y017045D01*
D25*
X019738Y018565D03*
X019738Y019065D03*
X019738Y019565D03*
X019738Y020065D03*
X019738Y020565D03*
X019738Y021065D03*
X019738Y021565D03*
X021785Y021565D03*
X021785Y021065D03*
X021785Y020565D03*
X021785Y020065D03*
X021785Y019565D03*
X021785Y019065D03*
X021785Y018565D03*
D26*
X016261Y014665D03*
D27*
X017261Y014665D03*
X017261Y013665D03*
X016261Y013665D03*
X016261Y012665D03*
X017261Y012665D03*
D28*
X018461Y010265D02*
X018461Y009138D01*
X018511Y009088D01*
X018150Y009088D01*
X017661Y008599D01*
X016761Y008599D01*
X016761Y007930D02*
X015961Y007930D01*
X015961Y007965D01*
X016761Y007930D02*
X017661Y007930D01*
X021361Y011365D02*
X021361Y012765D01*
X019861Y015665D02*
X017861Y015665D01*
X017111Y016415D01*
X017111Y017315D01*
X017061Y017365D01*
X018461Y016365D02*
X018861Y016765D01*
X019427Y016765D01*
X019427Y017665D01*
X019461Y017699D01*
X019461Y018165D01*
X019738Y018441D01*
X019738Y018565D01*
X020096Y017665D02*
X020096Y016765D01*
X020096Y015899D01*
X019861Y015665D01*
X020096Y017665D02*
X020461Y017665D01*
X020961Y018165D01*
X021661Y018165D01*
X021785Y018288D01*
X021785Y018565D01*
X008196Y008530D02*
X007727Y008999D01*
X006761Y008999D01*
X006761Y012065D01*
X006761Y012841D01*
X006761Y014888D02*
X006761Y015765D01*
X004196Y015430D02*
X004196Y014765D01*
X004196Y013865D01*
X003527Y013865D02*
X002961Y013865D01*
X002461Y013365D01*
X003527Y013865D02*
X003527Y014765D01*
X003527Y015299D01*
X003361Y015465D01*
X005027Y017965D02*
X005027Y018699D01*
X004861Y018865D01*
X008196Y008530D02*
X008196Y006765D01*
X007694Y006798D02*
X006735Y006798D01*
D29*
X004361Y004965D03*
X004061Y008465D03*
X006761Y012065D03*
X008661Y009165D03*
X009961Y009065D03*
X015961Y007965D03*
X018461Y010265D03*
X021361Y011365D03*
X018461Y016365D03*
X014161Y020065D03*
X008961Y018665D03*
X007961Y017465D03*
X008661Y015965D03*
X006761Y015765D03*
X004186Y015440D03*
X003361Y015465D03*
X002461Y013365D03*
X004861Y018865D03*
X004061Y019965D03*
X004061Y020665D03*
X011761Y014065D03*
D30*
X006627Y016965D02*
X006627Y017965D01*
X005696Y017965D01*
M02*
