G75*
G70*
%OFA0B0*%
%FSLAX25Y25*%
%IPPOS*%
%LPD*%
%AMOC8*
5,1,8,0,0,1.08239X$1,22.5*
%
%ADD10C,0.00800*%
%ADD11C,0.00000*%
%ADD12C,0.07400*%
%ADD13R,0.16000X0.16000*%
%ADD14R,0.02362X0.08661*%
%ADD15R,0.16140X0.16140*%
%ADD16R,0.05906X0.05118*%
%ADD17C,0.06400*%
%ADD18R,0.05512X0.03937*%
%ADD19R,0.05118X0.05906*%
%ADD20C,0.01600*%
%ADD21C,0.02500*%
%ADD22C,0.04362*%
D10*
X0001814Y0005039D02*
X0001814Y0215039D01*
X0261814Y0215039D01*
X0261814Y0005039D01*
X0001814Y0005039D01*
X0001814Y0215039D01*
X0261814Y0215039D01*
X0261814Y0005039D01*
X0001814Y0005039D01*
X0007210Y0015439D02*
X0012414Y0015439D01*
X0012414Y0018909D01*
X0012414Y0020964D02*
X0007210Y0020964D01*
X0007210Y0023566D01*
X0008077Y0024433D01*
X0009812Y0024433D01*
X0010680Y0023566D01*
X0010680Y0020964D01*
X0010680Y0022698D02*
X0012414Y0024433D01*
X0012414Y0026488D02*
X0012414Y0028223D01*
X0012414Y0027356D02*
X0007210Y0027356D01*
X0007210Y0028223D02*
X0007210Y0026488D01*
X0008077Y0030171D02*
X0011547Y0030171D01*
X0012414Y0031039D01*
X0012414Y0032773D01*
X0011547Y0033641D01*
X0008077Y0033641D02*
X0007210Y0032773D01*
X0007210Y0031039D01*
X0008077Y0030171D01*
X0015210Y0033307D02*
X0016077Y0032439D01*
X0016945Y0032439D01*
X0020414Y0035909D01*
X0018680Y0035909D02*
X0020414Y0034174D01*
X0020414Y0033307D01*
X0019547Y0032439D01*
X0018680Y0032439D01*
X0016945Y0034174D01*
X0016077Y0034174D01*
X0015210Y0033307D01*
X0016077Y0037964D02*
X0016945Y0037964D01*
X0020414Y0041433D01*
X0020414Y0039698D02*
X0020414Y0038831D01*
X0019547Y0037964D01*
X0018680Y0037964D01*
X0016945Y0039698D01*
X0016077Y0039698D01*
X0015210Y0038831D01*
X0016077Y0037964D01*
X0012414Y0041220D02*
X0012414Y0043822D01*
X0011547Y0044689D01*
X0010680Y0044689D01*
X0009812Y0043822D01*
X0009812Y0041220D01*
X0012414Y0041220D02*
X0007210Y0041220D01*
X0007210Y0043822D01*
X0008077Y0044689D01*
X0008945Y0044689D01*
X0009812Y0043822D01*
X0008077Y0046744D02*
X0011547Y0046744D01*
X0012414Y0047612D01*
X0012414Y0049346D01*
X0011547Y0050214D01*
X0008077Y0050214D01*
X0007210Y0049346D01*
X0007210Y0047612D01*
X0008077Y0046744D01*
X0007210Y0052269D02*
X0007210Y0054871D01*
X0008077Y0055738D01*
X0009812Y0055738D01*
X0010680Y0054871D01*
X0010680Y0052269D01*
X0012414Y0052269D02*
X0007210Y0052269D01*
X0010680Y0054004D02*
X0012414Y0055738D01*
X0012414Y0057793D02*
X0007210Y0057793D01*
X0012414Y0061263D01*
X0007210Y0061263D01*
X0024210Y0061787D02*
X0029414Y0061787D01*
X0024210Y0058318D01*
X0029414Y0058318D01*
X0029414Y0056263D02*
X0029414Y0052793D01*
X0024210Y0052793D01*
X0024210Y0056263D01*
X0026812Y0054528D02*
X0026812Y0052793D01*
X0024210Y0050845D02*
X0024210Y0049110D01*
X0024210Y0049978D02*
X0029414Y0049978D01*
X0029414Y0050845D02*
X0029414Y0049110D01*
X0029414Y0047055D02*
X0027680Y0045320D01*
X0027680Y0046188D02*
X0027680Y0043586D01*
X0029414Y0043586D02*
X0024210Y0043586D01*
X0024210Y0046188D01*
X0025077Y0047055D01*
X0026812Y0047055D01*
X0027680Y0046188D01*
X0024210Y0041531D02*
X0024210Y0038061D01*
X0029414Y0038061D01*
X0026812Y0038061D02*
X0026812Y0039796D01*
X0020414Y0039698D02*
X0018680Y0041433D01*
X0024210Y0030482D02*
X0029414Y0030482D01*
X0026812Y0030482D02*
X0026812Y0027013D01*
X0027680Y0024957D02*
X0028547Y0024957D01*
X0029414Y0024090D01*
X0029414Y0022356D01*
X0028547Y0021488D01*
X0026812Y0022356D02*
X0026812Y0024090D01*
X0027680Y0024957D01*
X0025077Y0024957D02*
X0024210Y0024090D01*
X0024210Y0022356D01*
X0025077Y0021488D01*
X0025945Y0021488D01*
X0026812Y0022356D01*
X0025077Y0019433D02*
X0024210Y0018566D01*
X0024210Y0016831D01*
X0025077Y0015964D01*
X0028547Y0015964D01*
X0029414Y0016831D01*
X0029414Y0018566D01*
X0028547Y0019433D01*
X0025077Y0019433D01*
X0024210Y0013909D02*
X0024210Y0012174D01*
X0024210Y0013041D02*
X0028547Y0013041D01*
X0029414Y0012174D01*
X0029414Y0011307D01*
X0028547Y0010439D01*
X0009812Y0015439D02*
X0009812Y0017174D01*
X0007210Y0018909D02*
X0007210Y0015439D01*
X0024210Y0027013D02*
X0029414Y0027013D01*
X0029414Y0063842D02*
X0024210Y0063842D01*
X0024210Y0066444D01*
X0025077Y0067311D01*
X0028547Y0067311D01*
X0029414Y0066444D01*
X0029414Y0063842D01*
X0012414Y0140539D02*
X0006209Y0140539D01*
X0006209Y0144676D01*
X0007243Y0146984D02*
X0011380Y0146984D01*
X0012414Y0148018D01*
X0012414Y0150087D01*
X0011380Y0151121D01*
X0009312Y0151121D01*
X0009312Y0149052D01*
X0007243Y0146984D02*
X0006209Y0148018D01*
X0006209Y0150087D01*
X0007243Y0151121D01*
X0006209Y0153430D02*
X0006209Y0156532D01*
X0007243Y0157566D01*
X0009312Y0157566D01*
X0010346Y0156532D01*
X0010346Y0153430D01*
X0010346Y0155498D02*
X0012414Y0157566D01*
X0011380Y0159875D02*
X0012414Y0160909D01*
X0012414Y0162977D01*
X0011380Y0164011D01*
X0010346Y0164011D01*
X0009312Y0162977D01*
X0009312Y0161943D01*
X0009312Y0162977D02*
X0008278Y0164011D01*
X0007243Y0164011D01*
X0006209Y0162977D01*
X0006209Y0160909D01*
X0007243Y0159875D01*
X0007243Y0166320D02*
X0006209Y0167354D01*
X0006209Y0169422D01*
X0007243Y0170457D01*
X0008278Y0170457D01*
X0012414Y0166320D01*
X0012414Y0170457D01*
X0011380Y0172765D02*
X0009312Y0172765D01*
X0009312Y0175868D01*
X0010346Y0176902D01*
X0011380Y0176902D01*
X0012414Y0175868D01*
X0012414Y0173799D01*
X0011380Y0172765D01*
X0009312Y0172765D02*
X0007243Y0174833D01*
X0006209Y0176902D01*
X0009312Y0179211D02*
X0009312Y0183347D01*
X0007243Y0185656D02*
X0006209Y0186690D01*
X0006209Y0188758D01*
X0007243Y0189793D01*
X0008278Y0189793D01*
X0012414Y0185656D01*
X0012414Y0189793D01*
X0011380Y0192101D02*
X0007243Y0192101D01*
X0006209Y0193135D01*
X0006209Y0195204D01*
X0007243Y0196238D01*
X0011380Y0192101D01*
X0012414Y0193135D01*
X0012414Y0195204D01*
X0011380Y0196238D01*
X0007243Y0196238D01*
X0008278Y0198546D02*
X0006209Y0200615D01*
X0012414Y0200615D01*
X0012414Y0202683D02*
X0012414Y0198546D01*
X0012414Y0204992D02*
X0012414Y0209128D01*
X0012414Y0207060D02*
X0006209Y0207060D01*
X0008278Y0204992D01*
X0046814Y0205039D02*
X0046814Y0195039D01*
X0052814Y0189039D01*
X0052814Y0182386D01*
X0061814Y0182386D02*
X0061814Y0190039D01*
X0056814Y0195039D01*
X0056814Y0205039D01*
X0071814Y0187039D02*
X0066814Y0182039D01*
X0062161Y0182039D01*
X0061814Y0182386D01*
X0071814Y0187039D02*
X0101814Y0187039D01*
X0103814Y0185039D01*
X0186814Y0185039D01*
X0189814Y0182039D01*
X0189814Y0158039D01*
X0186814Y0155039D01*
X0186814Y0141276D01*
X0186814Y0133039D01*
X0188814Y0131039D01*
X0195814Y0131039D01*
X0207314Y0119539D01*
X0207314Y0091276D01*
X0202314Y0091276D02*
X0202314Y0120539D01*
X0194814Y0128039D01*
X0186814Y0128039D01*
X0181814Y0133039D01*
X0181814Y0141276D01*
X0181814Y0154039D01*
X0177814Y0158039D01*
X0177814Y0178039D01*
X0173814Y0182039D01*
X0095814Y0182039D01*
X0162814Y0166039D02*
X0162814Y0152039D01*
X0166814Y0148039D01*
X0166814Y0141276D01*
X0171814Y0141276D02*
X0171814Y0152039D01*
X0172814Y0153039D01*
X0172814Y0166039D01*
X0176814Y0131039D02*
X0176814Y0120803D01*
X0171814Y0120803D02*
X0171814Y0110039D01*
X0192314Y0070803D02*
X0192314Y0056539D01*
X0187814Y0052039D01*
X0178314Y0052039D01*
X0175968Y0054386D01*
X0162814Y0054386D01*
X0197314Y0055539D02*
X0200814Y0052039D01*
X0209814Y0052039D01*
X0212161Y0054386D01*
X0225814Y0054386D01*
X0197314Y0055539D02*
X0197314Y0070803D01*
X0012414Y0140539D02*
X0012414Y0144676D01*
X0009312Y0142607D02*
X0009312Y0140539D01*
X0012414Y0153430D02*
X0006209Y0153430D01*
D11*
X0030314Y0185039D02*
X0030322Y0185358D01*
X0030345Y0185676D01*
X0030384Y0185993D01*
X0030439Y0186307D01*
X0030509Y0186618D01*
X0030594Y0186926D01*
X0030694Y0187229D01*
X0030809Y0187526D01*
X0030938Y0187818D01*
X0031082Y0188103D01*
X0031239Y0188381D01*
X0031409Y0188650D01*
X0031593Y0188911D01*
X0031789Y0189163D01*
X0031998Y0189404D01*
X0032218Y0189635D01*
X0032449Y0189855D01*
X0032690Y0190064D01*
X0032942Y0190260D01*
X0033203Y0190444D01*
X0033472Y0190614D01*
X0033750Y0190771D01*
X0034035Y0190915D01*
X0034327Y0191044D01*
X0034624Y0191159D01*
X0034927Y0191259D01*
X0035235Y0191344D01*
X0035546Y0191414D01*
X0035860Y0191469D01*
X0036177Y0191508D01*
X0036495Y0191531D01*
X0036814Y0191539D01*
X0037133Y0191531D01*
X0037451Y0191508D01*
X0037768Y0191469D01*
X0038082Y0191414D01*
X0038393Y0191344D01*
X0038701Y0191259D01*
X0039004Y0191159D01*
X0039301Y0191044D01*
X0039593Y0190915D01*
X0039878Y0190771D01*
X0040156Y0190614D01*
X0040425Y0190444D01*
X0040686Y0190260D01*
X0040938Y0190064D01*
X0041179Y0189855D01*
X0041410Y0189635D01*
X0041630Y0189404D01*
X0041839Y0189163D01*
X0042035Y0188911D01*
X0042219Y0188650D01*
X0042389Y0188381D01*
X0042546Y0188103D01*
X0042690Y0187818D01*
X0042819Y0187526D01*
X0042934Y0187229D01*
X0043034Y0186926D01*
X0043119Y0186618D01*
X0043189Y0186307D01*
X0043244Y0185993D01*
X0043283Y0185676D01*
X0043306Y0185358D01*
X0043314Y0185039D01*
X0043306Y0184720D01*
X0043283Y0184402D01*
X0043244Y0184085D01*
X0043189Y0183771D01*
X0043119Y0183460D01*
X0043034Y0183152D01*
X0042934Y0182849D01*
X0042819Y0182552D01*
X0042690Y0182260D01*
X0042546Y0181975D01*
X0042389Y0181697D01*
X0042219Y0181428D01*
X0042035Y0181167D01*
X0041839Y0180915D01*
X0041630Y0180674D01*
X0041410Y0180443D01*
X0041179Y0180223D01*
X0040938Y0180014D01*
X0040686Y0179818D01*
X0040425Y0179634D01*
X0040156Y0179464D01*
X0039878Y0179307D01*
X0039593Y0179163D01*
X0039301Y0179034D01*
X0039004Y0178919D01*
X0038701Y0178819D01*
X0038393Y0178734D01*
X0038082Y0178664D01*
X0037768Y0178609D01*
X0037451Y0178570D01*
X0037133Y0178547D01*
X0036814Y0178539D01*
X0036495Y0178547D01*
X0036177Y0178570D01*
X0035860Y0178609D01*
X0035546Y0178664D01*
X0035235Y0178734D01*
X0034927Y0178819D01*
X0034624Y0178919D01*
X0034327Y0179034D01*
X0034035Y0179163D01*
X0033750Y0179307D01*
X0033472Y0179464D01*
X0033203Y0179634D01*
X0032942Y0179818D01*
X0032690Y0180014D01*
X0032449Y0180223D01*
X0032218Y0180443D01*
X0031998Y0180674D01*
X0031789Y0180915D01*
X0031593Y0181167D01*
X0031409Y0181428D01*
X0031239Y0181697D01*
X0031082Y0181975D01*
X0030938Y0182260D01*
X0030809Y0182552D01*
X0030694Y0182849D01*
X0030594Y0183152D01*
X0030509Y0183460D01*
X0030439Y0183771D01*
X0030384Y0184085D01*
X0030345Y0184402D01*
X0030322Y0184720D01*
X0030314Y0185039D01*
X0010314Y0110039D02*
X0010322Y0110358D01*
X0010345Y0110676D01*
X0010384Y0110993D01*
X0010439Y0111307D01*
X0010509Y0111618D01*
X0010594Y0111926D01*
X0010694Y0112229D01*
X0010809Y0112526D01*
X0010938Y0112818D01*
X0011082Y0113103D01*
X0011239Y0113381D01*
X0011409Y0113650D01*
X0011593Y0113911D01*
X0011789Y0114163D01*
X0011998Y0114404D01*
X0012218Y0114635D01*
X0012449Y0114855D01*
X0012690Y0115064D01*
X0012942Y0115260D01*
X0013203Y0115444D01*
X0013472Y0115614D01*
X0013750Y0115771D01*
X0014035Y0115915D01*
X0014327Y0116044D01*
X0014624Y0116159D01*
X0014927Y0116259D01*
X0015235Y0116344D01*
X0015546Y0116414D01*
X0015860Y0116469D01*
X0016177Y0116508D01*
X0016495Y0116531D01*
X0016814Y0116539D01*
X0017133Y0116531D01*
X0017451Y0116508D01*
X0017768Y0116469D01*
X0018082Y0116414D01*
X0018393Y0116344D01*
X0018701Y0116259D01*
X0019004Y0116159D01*
X0019301Y0116044D01*
X0019593Y0115915D01*
X0019878Y0115771D01*
X0020156Y0115614D01*
X0020425Y0115444D01*
X0020686Y0115260D01*
X0020938Y0115064D01*
X0021179Y0114855D01*
X0021410Y0114635D01*
X0021630Y0114404D01*
X0021839Y0114163D01*
X0022035Y0113911D01*
X0022219Y0113650D01*
X0022389Y0113381D01*
X0022546Y0113103D01*
X0022690Y0112818D01*
X0022819Y0112526D01*
X0022934Y0112229D01*
X0023034Y0111926D01*
X0023119Y0111618D01*
X0023189Y0111307D01*
X0023244Y0110993D01*
X0023283Y0110676D01*
X0023306Y0110358D01*
X0023314Y0110039D01*
X0023306Y0109720D01*
X0023283Y0109402D01*
X0023244Y0109085D01*
X0023189Y0108771D01*
X0023119Y0108460D01*
X0023034Y0108152D01*
X0022934Y0107849D01*
X0022819Y0107552D01*
X0022690Y0107260D01*
X0022546Y0106975D01*
X0022389Y0106697D01*
X0022219Y0106428D01*
X0022035Y0106167D01*
X0021839Y0105915D01*
X0021630Y0105674D01*
X0021410Y0105443D01*
X0021179Y0105223D01*
X0020938Y0105014D01*
X0020686Y0104818D01*
X0020425Y0104634D01*
X0020156Y0104464D01*
X0019878Y0104307D01*
X0019593Y0104163D01*
X0019301Y0104034D01*
X0019004Y0103919D01*
X0018701Y0103819D01*
X0018393Y0103734D01*
X0018082Y0103664D01*
X0017768Y0103609D01*
X0017451Y0103570D01*
X0017133Y0103547D01*
X0016814Y0103539D01*
X0016495Y0103547D01*
X0016177Y0103570D01*
X0015860Y0103609D01*
X0015546Y0103664D01*
X0015235Y0103734D01*
X0014927Y0103819D01*
X0014624Y0103919D01*
X0014327Y0104034D01*
X0014035Y0104163D01*
X0013750Y0104307D01*
X0013472Y0104464D01*
X0013203Y0104634D01*
X0012942Y0104818D01*
X0012690Y0105014D01*
X0012449Y0105223D01*
X0012218Y0105443D01*
X0011998Y0105674D01*
X0011789Y0105915D01*
X0011593Y0106167D01*
X0011409Y0106428D01*
X0011239Y0106697D01*
X0011082Y0106975D01*
X0010938Y0107260D01*
X0010809Y0107552D01*
X0010694Y0107849D01*
X0010594Y0108152D01*
X0010509Y0108460D01*
X0010439Y0108771D01*
X0010384Y0109085D01*
X0010345Y0109402D01*
X0010322Y0109720D01*
X0010314Y0110039D01*
X0230314Y0015039D02*
X0230322Y0015358D01*
X0230345Y0015676D01*
X0230384Y0015993D01*
X0230439Y0016307D01*
X0230509Y0016618D01*
X0230594Y0016926D01*
X0230694Y0017229D01*
X0230809Y0017526D01*
X0230938Y0017818D01*
X0231082Y0018103D01*
X0231239Y0018381D01*
X0231409Y0018650D01*
X0231593Y0018911D01*
X0231789Y0019163D01*
X0231998Y0019404D01*
X0232218Y0019635D01*
X0232449Y0019855D01*
X0232690Y0020064D01*
X0232942Y0020260D01*
X0233203Y0020444D01*
X0233472Y0020614D01*
X0233750Y0020771D01*
X0234035Y0020915D01*
X0234327Y0021044D01*
X0234624Y0021159D01*
X0234927Y0021259D01*
X0235235Y0021344D01*
X0235546Y0021414D01*
X0235860Y0021469D01*
X0236177Y0021508D01*
X0236495Y0021531D01*
X0236814Y0021539D01*
X0237133Y0021531D01*
X0237451Y0021508D01*
X0237768Y0021469D01*
X0238082Y0021414D01*
X0238393Y0021344D01*
X0238701Y0021259D01*
X0239004Y0021159D01*
X0239301Y0021044D01*
X0239593Y0020915D01*
X0239878Y0020771D01*
X0240156Y0020614D01*
X0240425Y0020444D01*
X0240686Y0020260D01*
X0240938Y0020064D01*
X0241179Y0019855D01*
X0241410Y0019635D01*
X0241630Y0019404D01*
X0241839Y0019163D01*
X0242035Y0018911D01*
X0242219Y0018650D01*
X0242389Y0018381D01*
X0242546Y0018103D01*
X0242690Y0017818D01*
X0242819Y0017526D01*
X0242934Y0017229D01*
X0243034Y0016926D01*
X0243119Y0016618D01*
X0243189Y0016307D01*
X0243244Y0015993D01*
X0243283Y0015676D01*
X0243306Y0015358D01*
X0243314Y0015039D01*
X0243306Y0014720D01*
X0243283Y0014402D01*
X0243244Y0014085D01*
X0243189Y0013771D01*
X0243119Y0013460D01*
X0243034Y0013152D01*
X0242934Y0012849D01*
X0242819Y0012552D01*
X0242690Y0012260D01*
X0242546Y0011975D01*
X0242389Y0011697D01*
X0242219Y0011428D01*
X0242035Y0011167D01*
X0241839Y0010915D01*
X0241630Y0010674D01*
X0241410Y0010443D01*
X0241179Y0010223D01*
X0240938Y0010014D01*
X0240686Y0009818D01*
X0240425Y0009634D01*
X0240156Y0009464D01*
X0239878Y0009307D01*
X0239593Y0009163D01*
X0239301Y0009034D01*
X0239004Y0008919D01*
X0238701Y0008819D01*
X0238393Y0008734D01*
X0238082Y0008664D01*
X0237768Y0008609D01*
X0237451Y0008570D01*
X0237133Y0008547D01*
X0236814Y0008539D01*
X0236495Y0008547D01*
X0236177Y0008570D01*
X0235860Y0008609D01*
X0235546Y0008664D01*
X0235235Y0008734D01*
X0234927Y0008819D01*
X0234624Y0008919D01*
X0234327Y0009034D01*
X0234035Y0009163D01*
X0233750Y0009307D01*
X0233472Y0009464D01*
X0233203Y0009634D01*
X0232942Y0009818D01*
X0232690Y0010014D01*
X0232449Y0010223D01*
X0232218Y0010443D01*
X0231998Y0010674D01*
X0231789Y0010915D01*
X0231593Y0011167D01*
X0231409Y0011428D01*
X0231239Y0011697D01*
X0231082Y0011975D01*
X0230938Y0012260D01*
X0230809Y0012552D01*
X0230694Y0012849D01*
X0230594Y0013152D01*
X0230509Y0013460D01*
X0230439Y0013771D01*
X0230384Y0014085D01*
X0230345Y0014402D01*
X0230322Y0014720D01*
X0230314Y0015039D01*
D12*
X0201814Y0015039D03*
X0191814Y0015039D03*
X0181814Y0015039D03*
X0171814Y0015039D03*
X0161814Y0015039D03*
X0151814Y0015039D03*
X0141814Y0015039D03*
X0131814Y0015039D03*
X0116814Y0015039D03*
X0106814Y0015039D03*
X0096814Y0015039D03*
X0086814Y0015039D03*
X0076814Y0015039D03*
X0066814Y0015039D03*
X0056814Y0015039D03*
X0046814Y0015039D03*
X0229914Y0179239D03*
X0247714Y0179239D03*
X0247714Y0204839D03*
X0229914Y0204839D03*
X0166814Y0205039D03*
X0156814Y0205039D03*
X0146814Y0205039D03*
X0136814Y0205039D03*
X0126814Y0205039D03*
X0116814Y0205039D03*
X0096814Y0205039D03*
X0086814Y0205039D03*
X0076814Y0205039D03*
X0066814Y0205039D03*
X0056814Y0205039D03*
X0046814Y0205039D03*
D13*
X0236814Y0156539D03*
X0236814Y0126039D03*
X0236814Y0095539D03*
D14*
X0207314Y0091276D03*
X0202314Y0091276D03*
X0197314Y0091276D03*
X0192314Y0091276D03*
X0192314Y0070803D03*
X0197314Y0070803D03*
X0202314Y0070803D03*
X0207314Y0070803D03*
X0191814Y0120803D03*
X0186814Y0120803D03*
X0181814Y0120803D03*
X0176814Y0120803D03*
X0171814Y0120803D03*
X0166814Y0120803D03*
X0161814Y0120803D03*
X0161814Y0141276D03*
X0166814Y0141276D03*
X0171814Y0141276D03*
X0176814Y0141276D03*
X0181814Y0141276D03*
X0186814Y0141276D03*
X0191814Y0141276D03*
D15*
X0178314Y0052039D03*
X0209814Y0052039D03*
D16*
X0225814Y0054386D03*
X0225814Y0047693D03*
X0183814Y0079693D03*
X0183814Y0086386D03*
X0174814Y0086386D03*
X0174814Y0079693D03*
X0162814Y0054386D03*
X0162814Y0047693D03*
X0152814Y0127693D03*
X0152814Y0134386D03*
X0144814Y0134386D03*
X0144814Y0127693D03*
X0061814Y0175693D03*
X0052814Y0175693D03*
X0052814Y0182386D03*
X0061814Y0182386D03*
D17*
X0099614Y0157039D02*
X0106014Y0157039D01*
X0106014Y0147039D02*
X0099614Y0147039D01*
X0099614Y0137039D02*
X0106014Y0137039D01*
X0106014Y0127039D02*
X0099614Y0127039D01*
X0099614Y0117039D02*
X0106014Y0117039D01*
X0106014Y0107039D02*
X0099614Y0107039D01*
X0099614Y0097039D02*
X0106014Y0097039D01*
X0106014Y0087039D02*
X0099614Y0087039D01*
X0124614Y0108039D02*
X0131014Y0108039D01*
X0131014Y0118039D02*
X0124614Y0118039D01*
X0124614Y0128039D02*
X0131014Y0128039D01*
X0132814Y0162839D02*
X0132814Y0169239D01*
X0142814Y0169239D02*
X0142814Y0162839D01*
X0152814Y0162839D02*
X0152814Y0169239D01*
X0162814Y0169239D02*
X0162814Y0162839D01*
X0172814Y0162839D02*
X0172814Y0169239D01*
X0182814Y0169239D02*
X0182814Y0162839D01*
D18*
X0191145Y0191299D03*
X0182483Y0195039D03*
X0191145Y0198780D03*
D19*
X0204468Y0205039D03*
X0211161Y0205039D03*
D20*
X0229714Y0205039D01*
X0229914Y0204839D01*
X0204468Y0205039D02*
X0166814Y0205039D01*
X0141161Y0175693D02*
X0142814Y0174039D01*
X0142814Y0166039D01*
X0141161Y0175693D02*
X0061814Y0175693D01*
X0052814Y0175693D01*
X0102814Y0137039D02*
X0109814Y0137039D01*
X0114814Y0132039D01*
X0114814Y0122039D01*
X0118814Y0118039D01*
X0127814Y0118039D01*
X0183814Y0079693D02*
X0185161Y0079693D01*
X0188814Y0076039D01*
X0190814Y0078039D01*
X0198814Y0078039D01*
X0202314Y0078539D02*
X0204814Y0081039D01*
X0232814Y0081039D01*
X0236814Y0085039D01*
X0236814Y0095539D01*
X0202314Y0078539D02*
X0202314Y0070803D01*
X0207314Y0070803D02*
X0207314Y0064539D01*
X0208814Y0063039D01*
X0226814Y0063039D01*
X0230814Y0059039D01*
X0230814Y0047039D01*
X0230161Y0047693D01*
X0225814Y0047693D01*
X0230814Y0047039D02*
X0230814Y0043039D01*
X0228814Y0041039D01*
X0191814Y0041039D01*
X0159814Y0041039D01*
X0157814Y0043039D01*
X0157814Y0047039D01*
X0158468Y0047693D01*
X0162814Y0047693D01*
X0157814Y0047039D02*
X0157814Y0059039D01*
X0159814Y0061039D01*
X0166814Y0061039D01*
X0168814Y0063039D01*
X0186814Y0063039D01*
X0188814Y0065039D01*
X0188814Y0076039D01*
D21*
X0183814Y0079693D02*
X0183468Y0080039D01*
X0174814Y0080039D01*
X0174814Y0072039D01*
X0174814Y0079693D01*
X0174814Y0086386D02*
X0174161Y0087039D01*
X0174814Y0086386D02*
X0174814Y0097039D01*
X0161814Y0110039D01*
X0148814Y0097039D01*
X0102814Y0097039D01*
X0137814Y0130039D02*
X0139814Y0128039D01*
X0144468Y0128039D01*
X0144814Y0127693D01*
X0152814Y0127693D01*
X0159704Y0120803D01*
X0161814Y0120803D01*
X0161814Y0110039D01*
X0137814Y0130039D02*
X0137814Y0138039D01*
X0142814Y0143039D01*
X0142814Y0166039D01*
X0152814Y0166039D02*
X0152814Y0150276D01*
X0161814Y0141276D01*
X0154924Y0134386D01*
X0152814Y0134386D01*
X0144814Y0134386D01*
X0192314Y0091276D02*
X0187424Y0086386D01*
X0183814Y0086386D01*
X0174814Y0086386D01*
X0207314Y0070803D02*
X0213300Y0070803D01*
X0213314Y0070789D01*
X0191814Y0041039D02*
X0191814Y0015039D01*
X0222814Y0126039D02*
X0236814Y0126039D01*
X0199074Y0191299D02*
X0191145Y0191299D01*
X0182483Y0195039D02*
X0156814Y0195039D01*
X0146814Y0205039D01*
X0199074Y0191299D02*
X0204814Y0197039D01*
X0204814Y0204693D01*
X0204468Y0205039D01*
D22*
X0176814Y0131039D03*
X0171814Y0110039D03*
X0222814Y0126039D03*
X0174814Y0072039D03*
X0213314Y0070789D03*
X0095814Y0182039D03*
M02*
